<?xml version="1.0" encoding="UTF-8" standalone="no"?>
<svg
   xmlns:dc="http://purl.org/dc/elements/1.1/"
   xmlns:cc="http://creativecommons.org/ns#"
   xmlns:rdf="http://www.w3.org/1999/02/22-rdf-syntax-ns#"
   xmlns:svg="http://www.w3.org/2000/svg"
   xmlns="http://www.w3.org/2000/svg"
   xmlns:xlink="http://www.w3.org/1999/xlink"
   xmlns:sodipodi="http://sodipodi.sourceforge.net/DTD/sodipodi-0.dtd"
   xmlns:inkscape="http://www.inkscape.org/namespaces/inkscape"
   preserveAspectRatio="none"
   version="1.1"
   id="Layer_1"
   x="0px"
   y="0px"
   width="400"
   height="400"
   viewBox="0 0 400 400"
   style="enable-background:new 0 0 400 400;"
   xml:space="preserve"
   sodipodi:docname="elasticsearch.svg"
   inkscape:version="1.0.2-2 (e86c870879, 2021-01-15)"><metadata
   id="metadata35"><rdf:RDF><cc:Work
       rdf:about=""><dc:format>image/svg+xml</dc:format><dc:type
         rdf:resource="http://purl.org/dc/dcmitype/StillImage" /></cc:Work></rdf:RDF></metadata><defs
   id="defs33"><filter
     id="shadowFilter-p.1"
     filterUnits="userSpaceOnUse"><feGaussianBlur
       in="SourceAlpha"
       stdDeviation="2.0"
       result="blur"
       id="feGaussianBlur1073" /><feComponentTransfer
       in="blur"
       color-interpolation-filters="sRGB"
       id="feComponentTransfer1083"><feFuncR
         type="linear"
         slope="0"
         intercept="1.0"
         id="feFuncR1075" /><feFuncG
         type="linear"
         slope="0"
         intercept="1.0"
         id="feFuncG1077" /><feFuncB
         type="linear"
         slope="0"
         intercept="1.0"
         id="feFuncB1079" /><feFuncA
         type="linear"
         slope="0.5"
         intercept="0"
         id="feFuncA1081" /></feComponentTransfer></filter><clipPath
     id="SVGID_2_-7"><use
       xlink:href="#SVGID_1_"
       style="overflow:visible;"
       id="use7-2" /></clipPath></defs><sodipodi:namedview
   pagecolor="#ffffff"
   bordercolor="#666666"
   borderopacity="1"
   objecttolerance="10"
   gridtolerance="10"
   guidetolerance="10"
   inkscape:pageopacity="0"
   inkscape:pageshadow="2"
   inkscape:window-width="2400"
   inkscape:window-height="1284"
   id="namedview31"
   showgrid="false"
   inkscape:zoom="2.105"
   inkscape:cx="51.295359"
   inkscape:cy="247.64576"
   inkscape:window-x="-9"
   inkscape:window-y="-9"
   inkscape:window-maximized="1"
   inkscape:current-layer="g28"
   inkscape:document-rotation="0"><inkscape:grid
     type="xygrid"
     id="grid1365" /></sodipodi:namedview>
<style
   type="text/css"
   id="style2">
	.st0{clip-path:url(#SVGID_2_);fill:#4571F8;}
	.st1{clip-path:url(#SVGID_2_);fill:#FFFFFF;}
	.st2{clip-path:url(#SVGID_2_);fill:#8582FB;}
	.st3{clip-path:url(#SVGID_2_);fill:#46B5F9;}
	.st4{clip-path:url(#SVGID_2_);}
	.st5{fill:none;stroke:#4571F8;stroke-width:5;stroke-linecap:round;stroke-miterlimit:10;}
</style>
<g
   id="g28">
	<defs
   id="defs5">
		<rect
   id="SVGID_1_"
   width="400"
   height="400" />
	</defs>
	<clipPath
   id="SVGID_2_">
		<use
   xlink:href="#SVGID_1_"
   style="overflow:visible;"
   id="use7" />
	</clipPath>
	<rect
   class="st0"
   width="400"
   height="400"
   clip-path="url(#SVGID_2_)"
   id="rect10"
   x="0"
   y="0"
   style="fill:#21325b;fill-opacity:1" />
	<path
   class="st1"
   d="M468.3,58.1l18.3,154c1.3,10.9-6.5,20.9-17.5,22.2l-154,18.3c-10.9,1.3-20.9-6.5-22.2-17.5l-18.3-154   c-1.3-10.9,6.5-20.9,17.5-22.2l154-18.3C457,39.4,467,47.2,468.3,58.1z"
   clip-path="url(#SVGID_2_)"
   id="path12"
   style="fill:#ffffff;fill-opacity:1;stroke:none" />
	<path
   class="st2"
   d="M456.5,32.5l-14.6,154.4c-1,11-10.8,19-21.7,18l-154.4-14.6c-11-1-19-10.8-18-21.7l14.6-154.4   c1-11,10.8-19,21.7-18l154.4,14.6C449.5,11.8,457.5,21.5,456.5,32.5z"
   clip-path="url(#SVGID_2_)"
   id="path14"
   style="fill:#5a325b;fill-opacity:1" />
	<path
   class="st3"
   d="M456.4,29.9l-71.5,137.6c-5.1,9.8-17.1,13.6-26.9,8.5l-137.6-71.5c-9.8-5.1-13.6-17.1-8.5-26.9L283.4-60   c5.1-9.8,17.1-13.6,26.9-8.5L447.9,3C457.7,8.1,461.5,20.1,456.4,29.9z"
   clip-path="url(#SVGID_2_)"
   id="path16"
   style="fill:#215f5b;fill-opacity:1" />
	
	<g
   class="st4"
   clip-path="url(#SVGID_2_)"
   id="g26">
		
		
		
	</g>
<g
   id="g965"
   transform="matrix(2,0,0,2,296.7411,35.933497)"><path
     d="m 32,16.77 c 0,-2.678 -1.664,-5.03 -4.166,-5.937 a 9.14,9.14 0 0 0 0.162,-1.718 c 0,-5 -4.057,-9.048 -9.035,-9.048 -2.92,0 -5.626,1.393 -7.33,3.746 a 4.78,4.78 0 0 0 -2.935,-1 c -2.65,0 -4.8,2.15 -4.8,4.8 0,0.582 0.108,1.15 0.298,1.677 A 6.36,6.36 0 0 0 0,15.243 a 6.31,6.31 0 0 0 4.179,5.951 9.02,9.02 0 0 0 -0.162,1.718 9.03,9.03 0 0 0 9.021,9.021 c 2.92,0 5.626,-1.407 7.317,-3.76 0.84,0.663 1.866,1.028 2.935,1.028 2.65,0 4.8,-2.15 4.8,-4.8 0,-0.582 -0.108,-1.15 -0.298,-1.677 A 6.37,6.37 0 0 0 32,16.771"
     fill="#ffffff"
     id="path936" /><path
     d="m 12.578,13.795 7.006,3.192 7.06,-6.194 A 7.4,7.4 0 0 0 26.793,9.238 7.91,7.91 0 0 0 18.894,1.339 7.89,7.89 0 0 0 12.389,4.774 l -1.177,6.1 z"
     fill="#fed10a"
     id="path938" /><path
     d="m 5.33,21.207 a 7.66,7.66 0 0 0 -0.15,1.582 c 0,4.37 3.557,7.912 7.926,7.912 a 7.92,7.92 0 0 0 6.546,-3.462 l 1.163,-6.073 -1.555,-2.975 -7.033,-3.205 z"
     fill="#24bbb1"
     id="path940" /><path
     d="m 5.288,9.09 4.8,1.136 1.055,-5.45 c -0.65,-0.5 -1.46,-0.77 -2.3,-0.77 A 3.79,3.79 0 0 0 5.058,7.79 c 0,0.446 0.08,0.893 0.23,1.298"
     fill="#ef5098"
     id="path942" /><path
     d="m 4.87,10.238 c -2.137,0.703 -3.638,2.76 -3.638,5.018 0,2.205 1.366,4.166 3.408,4.95 l 6.735,-6.086 -1.23,-2.637 z"
     fill="#17a8e0"
     id="path944" /><path
     d="m 20.87,27.24 a 3.8,3.8 0 0 0 2.286,0.784 3.79,3.79 0 0 0 3.787,-3.787 3.82,3.82 0 0 0 -0.23,-1.312 l -4.788,-1.123 z"
     fill="#93c83e"
     id="path946" /><path
     d="m 21.843,20.544 5.275,1.23 a 5.33,5.33 0 0 0 3.638,-5.031 5.29,5.29 0 0 0 -3.408,-4.937 l -6.898,6.046 z"
     fill="#0779a1"
     id="path948" /></g><g
   style="fill:none;stroke:none;stroke-linecap:square;stroke-miterlimit:10"
   id="g1133"
   transform="matrix(0.4992151,0,0,0.57072087,11.613879,215.17195)"><g
     clip-path="url(#p.0)"
     id="g1093"><path
       fill="#000000"
       fill-opacity="0"
       d="M 0,0 H 394 V 300 H 0 Z"
       fill-rule="evenodd"
       id="path1065" /><path
       fill="#fa4f13"
       d="M -0.143937,0 H 338.72221 V 300 H -0.143937 Z"
       fill-rule="evenodd"
       id="path1067" /><g
       filter="url(#shadowFilter-p.1)"
       id="g1071"><use
         xlink:href="#p.1"
         transform="translate(0,2)"
         id="use1069"
         x="0"
         y="0"
         width="100%"
         height="100%" /></g><defs
       id="defs1086"><filter
         id="filter1126"
         filterUnits="userSpaceOnUse"><feGaussianBlur
           in="SourceAlpha"
           stdDeviation="2.0"
           result="blur"
           id="feGaussianBlur1114" /><feComponentTransfer
           in="blur"
           color-interpolation-filters="sRGB"
           id="feComponentTransfer1124"><feFuncR
             type="linear"
             slope="0"
             intercept="1.0"
             id="feFuncR1116" /><feFuncG
             type="linear"
             slope="0"
             intercept="1.0"
             id="feFuncG1118" /><feFuncB
             type="linear"
             slope="0"
             intercept="1.0"
             id="feFuncB1120" /><feFuncA
             type="linear"
             slope="0.5"
             intercept="0"
             id="feFuncA1122" /></feComponentTransfer></filter></defs><g
       id="p.1"><path
         fill="#000000"
         fill-opacity="0"
         d="M 19.220472,-134.58008 H 374.77955 V -32.84779 H 19.220472 Z"
         fill-rule="evenodd"
         id="path1088" /><path
         fill="#ffffff"
         d="M 331.26422,300.61993 V 88.91681 L 246.04547,300.61993 H 217.9361 L 132.71735,88.91681 V 300.61993 H 68.342345 V -1.75507 H 158.54547 L 231.9986,180.94805 305.4361,-1.75507 h 90.65625 v 302.375 z"
         fill-rule="nonzero"
         id="path1090" /></g></g></g><g
   id="g1259"
   transform="matrix(0.75835122,0,0,0.71383051,294.15285,298.79848)"><circle
     class="st0"
     cx="23.5"
     cy="23.5"
     r="21.5"
     id="circle1245"
     clip-path="url(#SVGID_2_)"
     transform="translate(6.3916954,74.529625)" /><circle
     class="st1"
     cx="82.199997"
     cy="108"
     r="10.5"
     id="circle1247"
     clip-path="url(#SVGID_2_)"
     transform="translate(-6.6443694,0.94116938)"
     inkscape:transform-center-x="-10.077531"
     inkscape:transform-center-y="13.436708" /><circle
     class="st1"
     cx="82.199997"
     cy="108"
     r="10.5"
     id="circle1247-8"
     clip-path="url(#SVGID_2_)"
     style="fill:none;stroke:#8c98a4;stroke-width:3;stroke-miterlimit:10"
     transform="translate(31.011479,0.94080961)" /></g></g>
<style
   type="text/css"
   id="style1243">
	.st0{fill:none;stroke:#8c98a4;stroke-width:4;stroke-miterlimit:10;}
	.st1{fill:none;stroke:#8c98a4;stroke-width:3;stroke-miterlimit:10;}
</style></svg>
