<?xml version="1.0" encoding="UTF-8" standalone="no"?>
<svg
   xmlns:dc="http://purl.org/dc/elements/1.1/"
   xmlns:cc="http://creativecommons.org/ns#"
   xmlns:rdf="http://www.w3.org/1999/02/22-rdf-syntax-ns#"
   xmlns:svg="http://www.w3.org/2000/svg"
   xmlns="http://www.w3.org/2000/svg"
   xmlns:sodipodi="http://sodipodi.sourceforge.net/DTD/sodipodi-0.dtd"
   xmlns:inkscape="http://www.inkscape.org/namespaces/inkscape"
   version="1.1"
   id="Layer_1"
   x="0px"
   y="0px"
   viewBox="0 0 128 126"
   style="enable-background:new 0 0 128 126;"
   xml:space="preserve"
   sodipodi:docname="infrastructure.svg"
   inkscape:version="1.0.2-2 (e86c870879, 2021-01-15)"><metadata
   id="metadata98"><rdf:RDF><cc:Work
       rdf:about=""><dc:format>image/svg+xml</dc:format><dc:type
         rdf:resource="http://purl.org/dc/dcmitype/StillImage" /><dc:title></dc:title></cc:Work></rdf:RDF></metadata><defs
   id="defs96" /><sodipodi:namedview
   pagecolor="#ffffff"
   bordercolor="#666666"
   borderopacity="1"
   objecttolerance="10"
   gridtolerance="10"
   guidetolerance="10"
   inkscape:pageopacity="0"
   inkscape:pageshadow="2"
   inkscape:window-width="2400"
   inkscape:window-height="1284"
   id="namedview94"
   showgrid="false"
   inkscape:zoom="4.7252691"
   inkscape:cx="52.26814"
   inkscape:cy="78.342953"
   inkscape:window-x="-9"
   inkscape:window-y="-9"
   inkscape:window-maximized="1"
   inkscape:current-layer="Layer_1" />
<style
   type="text/css"
   id="style2">
	.st0{opacity:0.3;fill:#BDC5D1;}
	.st1{fill:#FFFFFF;}
	.st2{fill:#2684FF;}
	.st3{fill:url(#SVGID_1_);}
	.st4{fill:url(#SVGID_2_);}
	.st5{fill:#95BF47;}
	.st6{fill:#5E8E3E;}
	.st7{fill:url(#b_1_);}
	.st8{fill:url(#e_1_);}
	.st9{fill:url(#h_1_);}
	.st10{fill-rule:evenodd;clip-rule:evenodd;fill:#EA6C00;}
	.st11{fill-rule:evenodd;clip-rule:evenodd;fill:#FDAD00;}
	.st12{fill-rule:evenodd;clip-rule:evenodd;fill:#FDD231;}
	.st13{fill-rule:evenodd;clip-rule:evenodd;fill:#FEEEB7;}
</style>
<path
   class="st0"
   d="m 65.776733,67.588372 -42.1,-17.5 c -3,-1.2 -4.4,-4.7 -3.2,-7.7 l 17.5,-42.00000017 c 1.2,-3.00000003 4.7,-4.40000003 7.7,-3.20000003 l 42.1,17.4000002 c 3,1.2 4.4,4.7 3.2,7.7 l -17.5,42.1 c -1.2,3 -4.7,4.4 -7.7,3.2 z"
   id="path4" />
<path
   class="st1"
   d="m 63.665105,63.611628 -42.1,-17.5 c -3,-1.2 -4.4,-4.7 -3.2,-7.7 l 17.5,-41.9999998 c 1.2,-3 4.7,-4.4 7.7,-3.2 l 42.1,17.3999998 c 3,1.2 4.4,4.7 3.2,7.7 l -17.5,42.1 c -1.2,3 -4.7,4.4 -7.7,3.2 z"
   id="path6" />

<linearGradient
   id="SVGID_1_"
   gradientUnits="userSpaceOnUse"
   x1="-1162.4835"
   y1="423.0362"
   x2="-1162.4888"
   y2="423.0308"
   gradientTransform="matrix(1079.1891 447.1534 444.5365 -1072.8733 1066557.125 973696.75)">
	<stop
   offset="0.18"
   style="stop-color:#0052CC"
   id="stop10" />
	<stop
   offset="1"
   style="stop-color:#2684FF"
   id="stop12" />
</linearGradient>

<linearGradient
   id="SVGID_2_"
   gradientUnits="userSpaceOnUse"
   x1="-1162.0336"
   y1="423.4908"
   x2="-1162.0396"
   y2="423.485"
   gradientTransform="matrix(1079.1971 447.1567 444.5364 -1072.8732 1065869.875 973991.3125)">
	<stop
   offset="0.18"
   style="stop-color:#0052CC"
   id="stop17" />
	<stop
   offset="1"
   style="stop-color:#2684FF"
   id="stop19" />
</linearGradient>

<path
   class="st0"
   d="M48.2,134.7L6.1,117.3c-3-1.2-4.4-4.7-3.2-7.7l17.4-42.1c1.2-3,4.7-4.4,7.7-3.2l42.2,17.5  c3,1.2,4.4,4.7,3.2,7.7L56,131.6C54.6,134.5,51.2,136,48.2,134.7z"
   id="path24" />
<path
   class="st1"
   d="M46,129.5L3.9,112.1c-3-1.2-4.4-4.7-3.2-7.7l17.4-42.1c1.2-3,4.7-4.4,7.7-3.2L68,76.6c3,1.2,4.4,4.7,3.2,7.7  l-17.4,42.1C52.4,129.3,49,130.8,46,129.5z"
   id="path26" />



<path
   class="st0"
   d="M124.4,137.8l-42.1-17.4c-3-1.2-4.4-4.7-3.2-7.7l17.4-42.1c1.2-3,4.7-4.4,7.7-3.2l42.1,17.4  c3,1.2,4.4,4.7,3.2,7.7l-17.4,42.1C130.8,137.6,127.4,139,124.4,137.8z"
   id="path34" />
<path
   class="st1"
   d="M122.5,134l-42.1-17.4c-3-1.2-4.4-4.7-3.2-7.7l17.4-42.1c1.2-3,4.7-4.4,7.7-3.2L144.4,81c3,1.2,4.4,4.7,3.2,7.7  l-17.4,42.1C128.9,133.8,125.5,135.2,122.5,134z"
   id="path36" />

<path
   class="st0"
   d="m 141.73022,72.834884 -42.1,-17.4 c -3,-1.2 -4.4,-4.7 -3.2,-7.7 l 17.4,-42.0999995 c 1.2,-3 4.7,-4.4 7.7,-3.2 l 42.1,17.3999995 c 3,1.2 4.4,4.7 3.2,7.7 l -17.4,42.1 c -1.3,3 -4.7,4.4 -7.7,3.2 z"
   id="path81" />
<path
   class="st1"
   d="m 139.95348,69.704653 -42.100003,-17.4 c -3,-1.2 -4.4,-4.7 -3.2,-7.7 L 112.05348,2.5046534 c 1.2,-2.99999998 4.7,-4.4 7.7,-3.19999998 l 42.1,17.39999958 c 3,1.2 4.4,4.7 3.2,7.7 l -17.4,42.1 c -1.3,3 -4.7,4.4 -7.7,3.2 z"
   id="path83" />








<style
   id="style282"><![CDATA[.C{fill-rule:evenodd}]]></style><g
   transform="matrix(0.55972255,0.21398902,-0.2133789,0.56743891,35.24821,39.309266)"
   class="C"
   id="g296"><path
     d="m 39.1,15.557 v -24.43 l -21.16,-12.22 v 24.43 z m 0,-27.1 -21.16,-12.22 v -24.44 l 21.16,12.22 z"
     fill="#5c4ee5"
     id="path284" /><path
     d="m 62.6,-23.773 v -24.44 l -21.17,12.22 v 24.44 z"
     fill="#4040b2"
     id="path286" /><g
     fill="#5c4ee5"
     id="g294"><path
       d="m 15.62,-25.193 v -24.44 l -21.16,-12.22 v 24.44 z"
       id="path288" /><path
       d="M 53.64,-0.483"
       id="path290" /><path
       d="M 17.94,-21.093"
       id="path292" /></g></g><g
   id="g340"
   transform="matrix(0.69058013,0.34047818,-0.33009216,0.72196519,120.39125,205.11252)"
   style="stroke-width:1.27936"><path
     d="m -33.62,-115.24 c 0,17.674 -14.326,32 -32,32 -17.674,0 -32,-14.326 -32,-32 0,-17.674 14.328,-32 32,-32 17.672,0 32,14.328 32,32"
     fill="#1a1918"
     id="path326"
     style="stroke-width:1.63676" /><path
     d="m -65.08,-127.692 8.28,20.438 -12.508,-9.853 z m 14.7,25.147 -12.728,-30.655 c -0.364,-0.884 -1.1,-1.352 -1.973,-1.352 -0.873,0 -1.664,0.468 -2.028,1.352 L -81.1,-99.576 h 4.783 l 5.534,-13.863 16.515,13.343 c 0.664,0.537 1.144,0.78 1.767,0.78 1.248,0 2.338,-0.936 2.338,-2.286 0,-0.22 -0.078,-0.57 -0.218,-0.944 z"
     fill="#ffffff"
     id="path328"
     style="stroke-width:1.63676" /></g><g
   id="g398"
   transform="matrix(0.68155993,0.29505702,-0.28885107,0.6980026,26.056585,65.144794)"
   style="stroke-width:1.33516"><g
     fill="#b7ca9d"
     id="g370"
     style="stroke-width:1.78266"><path
       d="m 9.1,44.262 0.447,0.507 22.573,6.4 0.102,-3.966 -15.8,-3.967 -0.774,-0.28 -6.54,1.307"
       id="path366"
       style="stroke-width:1.33516" /><path
       d="m 54.9,44.262 -23.053,7.695 -0.07,-4.755 15.8,-3.967 0.7,-0.775 6.624,1.803"
       id="path368"
       style="stroke-width:1.33516" /></g><path
     d="m 31.777,17.08 15.8,3.684 6.953,-0.33 0.36,-0.697 -22.026,-7.93 -1.095,5.27"
     fill="#3c4929"
     id="path372"
     style="stroke-width:1.78266" /><path
     d="M 16.413,43.235 9.1,44.262 8.896,43.502 V 20.536 l 0.204,-0.8 6.608,0.5 0.705,0.536 v 22.47"
     fill="#759c3e"
     id="path374"
     style="stroke-width:1.78266" /><path
     d="M 32.222,17.08 16.422,20.764 9.1,19.737 9.376,19.304 32.12,12.83 l 0.102,4.248"
     fill="#3c4929"
     id="path376"
     style="stroke-width:1.78266" /><path
     d="M 31.968,0 5.713,13.252 5.726,50.754 31.968,64 l 0.4,-0.594 V 0.77 Z M 24.3,48.82 9.1,44.262 V 19.737 L 24.3,15.18 Z m 23.295,-5.587 7.313,1.028 0.4,-0.725 V 20.434 l -0.4,-0.697 -7.313,1.027 v 22.47"
     fill="#4b612c"
     id="path378"
     style="stroke-width:1.78266" /><path
     d="M 31.968,64 58.274,50.755 58.287,13.253 31.968,0 Z m 7.74,-48.82 15.2,4.557 v 24.525 l -15.2,4.56 z"
     fill="#759c3e"
     id="path380"
     style="stroke-width:1.78266" /></g><g
   id="g441"
   transform="rotate(22.000897,38.986644,298.37386)"><path
     d="m 24.81,22.025 c -0.11,0 -0.11,0 -0.22,-0.11 L 10.466,13.739 c -0.11,-0.11 -0.22,-0.22 -0.22,-0.331 0,-0.11 0.11,-0.332 0.22,-0.332 L 24.48,4.901 c 0.11,-0.11 0.33,-0.11 0.441,0 l 14.124,8.175 c 0.11,0.11 0.22,0.221 0.22,0.332 0,0.11 -0.11,0.331 -0.22,0.331 l -14.014,8.176 c -0.11,0 -0.11,0.11 -0.22,0.11 z"
     fill="#0f74c4"
     id="path418" /><path
     d="m 22.824,41.912 c -0.11,0 -0.11,0 -0.22,-0.11 L 8.479,33.735 c -0.11,-0.11 -0.22,-0.22 -0.22,-0.331 V 16.943 c 0,-0.11 0.11,-0.331 0.22,-0.331 0.11,-0.11 0.332,-0.11 0.442,0 l 14.124,8.065 c 0.11,0.11 0.22,0.22 0.22,0.331 V 41.36 c 0,0.111 -0.11,0.332 -0.22,0.332 -0.11,0.221 -0.22,0.221 -0.22,0.221 z"
     fill="#0f5e9a"
     id="path420" /><path
     d="m 26.797,41.912 c -0.11,0 -0.11,0 -0.22,-0.11 C 26.466,41.691 26.355,41.58 26.355,41.47 V 25.23 c 0,-0.111 0.11,-0.332 0.221,-0.332 L 40.7,16.722 c 0.11,-0.11 0.331,-0.11 0.442,0 0.11,0.11 0.22,0.221 0.22,0.331 v 16.241 c 0,0.11 -0.11,0.332 -0.22,0.332 L 27.017,41.8 c -0.11,0.11 -0.11,0.11 -0.22,0.11 z"
     fill="#59b4d9"
     id="path422" /><path
     opacity="0.5"
     d="m 26.797,41.912 c -0.11,0 -0.11,0 -0.22,-0.11 C 26.466,41.691 26.355,41.58 26.355,41.47 V 25.23 c 0,-0.111 0.11,-0.332 0.221,-0.332 L 40.7,16.722 c 0.11,-0.11 0.331,-0.11 0.442,0 0.11,0.11 0.22,0.221 0.22,0.331 v 16.241 c 0,0.11 -0.11,0.332 -0.22,0.332 L 27.017,41.8 c -0.11,0.11 -0.11,0.11 -0.22,0.11 z"
     fill="#2e89cb"
     id="path424" /><path
     d="m 9.914,43.79 c -0.22,0 -0.441,-0.11 -0.662,-0.221 L 2.632,39.702 C 1.527,39.039 0.754,37.713 0.754,36.388 V 12.082 C 0.754,10.756 1.527,9.43 2.63,8.767 L 9.251,4.9 c 0.663,-0.331 1.546,-0.11 1.877,0.553 0.441,0.663 0.22,1.546 -0.442,1.988 l -6.62,3.757 c -0.221,0.11 -0.552,0.663 -0.552,0.884 v 24.306 c 0,0.22 0.331,0.773 0.552,0.883 l 6.62,3.867 c 0.662,0.442 0.883,1.216 0.552,1.879 -0.33,0.441 -0.772,0.773 -1.324,0.773 z m 29.683,-39 c 0.22,0 0.441,0.11 0.662,0.221 l 6.62,3.867 c 1.104,0.663 1.876,1.989 1.876,3.314 v 24.306 c 0,1.326 -0.772,2.652 -1.876,3.315 l -6.62,3.867 c -0.662,0.441 -1.545,0.11 -1.876,-0.553 -0.442,-0.663 -0.11,-1.547 0.552,-1.878 l 6.62,-3.867 c 0.221,-0.11 0.552,-0.663 0.552,-0.884 V 12.192 c 0,-0.22 -0.331,-0.773 -0.552,-0.883 L 38.935,7.442 C 38.272,7 38.052,6.116 38.383,5.452 38.713,5.011 39.155,4.79 39.597,4.79 Z"
     fill="#3f9ac5"
     id="path426" /></g></svg>
