<?xml version="1.0" encoding="UTF-8" standalone="no"?>
<svg
   xmlns:dc="http://purl.org/dc/elements/1.1/"
   xmlns:cc="http://creativecommons.org/ns#"
   xmlns:rdf="http://www.w3.org/1999/02/22-rdf-syntax-ns#"
   xmlns:svg="http://www.w3.org/2000/svg"
   xmlns="http://www.w3.org/2000/svg"
   xmlns:xlink="http://www.w3.org/1999/xlink"
   xmlns:sodipodi="http://sodipodi.sourceforge.net/DTD/sodipodi-0.dtd"
   xmlns:inkscape="http://www.inkscape.org/namespaces/inkscape"
   version="1.1"
   id="Layer_1"
   x="0px"
   y="0px"
   viewBox="0 0 128 126"
   style="enable-background:new 0 0 128 126;"
   xml:space="preserve"
   sodipodi:docname="automation.svg"
   inkscape:version="1.0.2-2 (e86c870879, 2021-01-15)"><metadata
   id="metadata98"><rdf:RDF><cc:Work
       rdf:about=""><dc:format>image/svg+xml</dc:format><dc:type
         rdf:resource="http://purl.org/dc/dcmitype/StillImage" /></cc:Work></rdf:RDF></metadata><defs
   id="defs96"><clipPath
     id="A"><path
       d="M0 216h216V0H0v216z"
       id="path1331" /></clipPath><clipPath
     id="B"><path
       d="M121.724 55.66c.343 1.114.4 2.832-3.038 2.054 0 0-9.395-1.342-9.843-12.303l-.214-21h-2.258l-.213 21c-.448 10.96-9.842 12.303-9.842 12.303-3.428.778-3.383-.938-3.04-2.052-3.37 5.738-12.394 4.996-12.394 4.996-3.133-1.117-.224-3.13-.224-3.13 4.92-1.788 5.37-7.158 5.37-7.158V35.2l.52-11.728c1.117-5.224 3.874-8.312 6.578-10.13l28.803.033c3.484 2.365 7.047 6.846 7.047 15.307V50.37s.447 5.37 5.37 7.158c0 0 2.906 2.014-.225 3.13 0 0-.382.03-1.017.032-2.455 0-8.7-.47-11.378-5.03M94.53 34.04v16.552c0 1.617-.285 2.977-.773 4.12 3.24-2.526 3.457-8.855 3.457-8.855v-20.66c-3.225 2.282-2.684 8.846-2.684 8.846M117.8 45.86s.217 6.33 3.456 8.855c-.487-1.143-.772-2.503-.772-4.12V34.042s.54-6.1-2.684-8.612v20.43z"
       id="path1334" /></clipPath><clipPath
     id="C"><path
       d="M0 216h216V0H0v216z"
       id="path1337" /></clipPath><path
     id="D"
     d="M158.542 54.996c0-9.73-22.538-17.617-50.34-17.617s-50.34 7.887-50.34 17.617 22.537 17.62 50.34 17.62 50.34-7.9 50.34-17.62" /><path
     id="E"
     d="M75.282 93.676c0-.555-.65-1.006-1.454-1.006s-1.455.45-1.455 1.006.65 1.008 1.455 1.008 1.454-.45 1.454-1.008" /></defs><sodipodi:namedview
   pagecolor="#ffffff"
   bordercolor="#666666"
   borderopacity="1"
   objecttolerance="10"
   gridtolerance="10"
   guidetolerance="10"
   inkscape:pageopacity="0"
   inkscape:pageshadow="2"
   inkscape:window-width="2400"
   inkscape:window-height="1284"
   id="namedview94"
   showgrid="false"
   inkscape:zoom="6.6825397"
   inkscape:cx="95.012844"
   inkscape:cy="62.064641"
   inkscape:window-x="-9"
   inkscape:window-y="-9"
   inkscape:window-maximized="1"
   inkscape:current-layer="Layer_1" />
<style
   type="text/css"
   id="style2">
	.st0{opacity:0.3;fill:#BDC5D1;}
	.st1{fill:#FFFFFF;}
	.st2{fill:#2684FF;}
	.st3{fill:url(#SVGID_1_);}
	.st4{fill:url(#SVGID_2_);}
	.st5{fill:#95BF47;}
	.st6{fill:#5E8E3E;}
	.st7{fill:url(#b_1_);}
	.st8{fill:url(#e_1_);}
	.st9{fill:url(#h_1_);}
	.st10{fill-rule:evenodd;clip-rule:evenodd;fill:#EA6C00;}
	.st11{fill-rule:evenodd;clip-rule:evenodd;fill:#FDAD00;}
	.st12{fill-rule:evenodd;clip-rule:evenodd;fill:#FDD231;}
	.st13{fill-rule:evenodd;clip-rule:evenodd;fill:#FEEEB7;}
</style>
<path
   class="st0"
   d="m 65.776733,67.588372 -42.1,-17.5 c -3,-1.2 -4.4,-4.7 -3.2,-7.7 l 17.5,-42.00000017 c 1.2,-3.00000003 4.7,-4.40000003 7.7,-3.20000003 l 42.1,17.4000002 c 3,1.2 4.4,4.7 3.2,7.7 l -17.5,42.1 c -1.2,3 -4.7,4.4 -7.7,3.2 z"
   id="path4" />
<path
   class="st1"
   d="m 63.665105,63.611628 -42.1,-17.5 c -3,-1.2 -4.4,-4.7 -3.2,-7.7 l 17.5,-41.9999998 c 1.2,-3 4.7,-4.4 7.7,-3.2 l 42.1,17.3999998 c 3,1.2 4.4,4.7 3.2,7.7 l -17.5,42.1 c -1.2,3 -4.7,4.4 -7.7,3.2 z"
   id="path6" />

<linearGradient
   id="SVGID_1_"
   gradientUnits="userSpaceOnUse"
   x1="-1162.4835"
   y1="423.0362"
   x2="-1162.4888"
   y2="423.0308"
   gradientTransform="matrix(1079.1891 447.1534 444.5365 -1072.8733 1066557.125 973696.75)">
	<stop
   offset="0.18"
   style="stop-color:#0052CC"
   id="stop10" />
	<stop
   offset="1"
   style="stop-color:#2684FF"
   id="stop12" />
</linearGradient>

<linearGradient
   id="SVGID_2_"
   gradientUnits="userSpaceOnUse"
   x1="-1162.0336"
   y1="423.4908"
   x2="-1162.0396"
   y2="423.485"
   gradientTransform="matrix(1079.1971 447.1567 444.5364 -1072.8732 1065869.875 973991.3125)">
	<stop
   offset="0.18"
   style="stop-color:#0052CC"
   id="stop17" />
	<stop
   offset="1"
   style="stop-color:#2684FF"
   id="stop19" />
</linearGradient>

<path
   class="st0"
   d="M48.2,134.7L6.1,117.3c-3-1.2-4.4-4.7-3.2-7.7l17.4-42.1c1.2-3,4.7-4.4,7.7-3.2l42.2,17.5  c3,1.2,4.4,4.7,3.2,7.7L56,131.6C54.6,134.5,51.2,136,48.2,134.7z"
   id="path24" />
<path
   class="st1"
   d="M46,129.5L3.9,112.1c-3-1.2-4.4-4.7-3.2-7.7l17.4-42.1c1.2-3,4.7-4.4,7.7-3.2L68,76.6c3,1.2,4.4,4.7,3.2,7.7  l-17.4,42.1C52.4,129.3,49,130.8,46,129.5z"
   id="path26" />



<path
   class="st0"
   d="M124.4,137.8l-42.1-17.4c-3-1.2-4.4-4.7-3.2-7.7l17.4-42.1c1.2-3,4.7-4.4,7.7-3.2l42.1,17.4  c3,1.2,4.4,4.7,3.2,7.7l-17.4,42.1C130.8,137.6,127.4,139,124.4,137.8z"
   id="path34" />
<path
   class="st1"
   d="M 123.44697,133.71439 80.892399,117.45774 c -3.031314,-1.11855 -4.525328,-4.57946 -3.406787,-7.61077 L 93.742264,67.292399 c 1.118541,-3.031314 4.579455,-4.525328 7.610766,-3.406787 l 42.55457,16.256652 c 3.03131,1.118541 4.52533,4.579455 3.40679,7.610769 L 131.05774,130.3076 c -1.21851,3.03402 -4.57946,4.52533 -7.61077,3.40679 z"
   id="path36" />

<path
   class="st0"
   d="m 141.73022,72.834884 -42.1,-17.4 c -3,-1.2 -4.4,-4.7 -3.2,-7.7 l 17.4,-42.0999995 c 1.2,-3 4.7,-4.4 7.7,-3.2 l 42.1,17.3999995 c 3,1.2 4.4,4.7 3.2,7.7 l -17.4,42.1 c -1.3,3 -4.7,4.4 -7.7,3.2 z"
   id="path81" />
<path
   class="st1"
   d="m 139.95348,69.704653 -42.100003,-17.4 c -3,-1.2 -4.4,-4.7 -3.2,-7.7 L 112.05348,2.5046534 c 1.2,-2.99999998 4.7,-4.4 7.7,-3.19999998 l 42.1,17.39999958 c 3,1.2 4.4,4.7 3.2,7.7 l -17.4,42.1 c -1.3,3 -4.7,4.4 -7.7,3.2 z"
   id="path83" />








<style
   id="style282"><![CDATA[.C{fill-rule:evenodd}]]></style><g
   transform="matrix(0.55972255,0.21398902,-0.2133789,0.56743891,35.24821,39.309266)"
   class="C"
   id="g296"><g
     fill="#5c4ee5"
     id="g294"><path
       d="M 53.64,-0.483"
       id="path290" /><path
       d="M 17.94,-21.093"
       id="path292" /></g></g><g
   id="g340"
   transform="matrix(0.69058013,0.34047818,-0.33009216,0.72196519,120.39125,205.11252)"
   style="stroke-width:1.27936"><path
     d="m -65.08,-127.692 8.28,20.438 -12.508,-9.853 z m 14.7,25.147 -12.728,-30.655 c -0.364,-0.884 -1.1,-1.352 -1.973,-1.352 -0.873,0 -1.664,0.468 -2.028,1.352 L -81.1,-99.576 h 4.783 l 5.534,-13.863 16.515,13.343 c 0.664,0.537 1.144,0.78 1.767,0.78 1.248,0 2.338,-0.936 2.338,-2.286 0,-0.22 -0.078,-0.57 -0.218,-0.944 z"
     fill="#ffffff"
     id="path328"
     style="stroke-width:1.63676" /></g><g
   id="g398"
   transform="matrix(0.68155993,0.29505702,-0.28885107,0.6980026,26.056585,65.144794)"
   style="stroke-width:1.33516"><g
     fill="#b7ca9d"
     id="g370"
     style="stroke-width:1.78266" /></g><g
   id="g441"
   transform="rotate(22.000897,38.986644,298.37386)" /><style
   id="style1084"><![CDATA[.B{fill-rule:evenodd}.C{fill:#dcd9d8}.D{fill:#d33833}.E{fill:#231f20}.F{fill:#f7e4cd}.G{stroke:#d33833}.H{stroke-width:.257}]]></style><g
   id="g1221"
   transform="matrix(1.4646762,0.67184307,-0.63045563,1.0331354,24.115173,70.920676)"
   style="stroke-width:1.43711"><path
     d="M 27.295,15.42 C 27.295,21.76 22.27,26.9 16.072,26.9 9.874,26.9 4.85,21.76 4.85,15.42 4.85,9.08 9.874,3.94 16.072,3.94 c 6.198,0 11.223,5.14 11.223,11.48"
     class="B D"
     id="path1086"
     style="stroke-width:1.43711" /><path
     d="m 5.306,18.263 c 0,0 -0.812,-11.971 10.218,-12.313 l -0.77,-1.283 -5.986,2 -1.7,1.967 -1.496,2.865 -0.855,3.335 0.257,2.223"
     fill="#ef3d3a"
     id="path1088"
     style="stroke-width:3.41078" /><path
     d="m 8.385,7.59 c -1.97,2.015 -3.188,4.797 -3.188,7.874 0,3.077 1.22,5.86 3.188,7.873 1.968,2.013 4.685,3.257 7.687,3.257 3.002,0 5.717,-1.243 7.687,-3.257 1.97,-2.014 3.188,-4.797 3.188,-7.873 0,-3.076 -1.22,-5.86 -3.188,-7.874 C 21.791,5.576 19.074,4.333 16.072,4.333 13.07,4.333 10.355,5.576 8.385,7.59 Z M 7.887,23.825 c -2.093,-2.14 -3.386,-5.098 -3.386,-8.36 0,-3.262 1.294,-6.22 3.386,-8.36 2.092,-2.14 4.988,-3.468 8.185,-3.467 3.197,10e-4 6.093,1.327 8.185,3.467 2.092,2.14 3.387,5.098 3.387,8.36 0,3.262 -1.294,6.22 -3.387,8.36 -2.093,2.14 -4.988,3.467 -8.185,3.467 -3.197,0 -6.093,-1.327 -8.185,-3.467"
     class="E"
     id="path1090"
     style="stroke-width:1.43711" /><g
     class="B"
     id="g1102"
     style="stroke-width:1.43711"><path
       d="m 20.796,15.484 -1.7,0.257 -2.31,0.257 -1.496,0.043 -1.454,-0.043 -1.112,-0.342 -0.983,-1.07 -0.77,-2.18 -0.17,-0.47 L 9.775,11.594 9.175,10.611 8.74,9.2 9.21,7.96 l 1.112,-0.385 0.898,0.428 0.428,0.94 0.513,-0.086 0.17,-0.214 -0.17,-0.983 -0.043,-1.24 0.257,-1.7 -0.01,-0.977 0.78,-1.246 1.368,-0.983 2.392,-1.037 2.65,0.385 2.31,1.667 1.07,1.7 0.684,1.24 0.17,3.078 -0.513,2.65 -0.94,2.35 -0.898,1.24"
       fill="#f0d6b7"
       id="path1092"
       style="stroke-width:3.41078" /><path
       d="m 19.342,22.88 -6.114,0.257 v 1.026 l 0.513,3.59 -0.257,0.3 L 9.21,26.6 8.91,26.087 8.482,21.257 7.499,18.35 7.285,17.666 l 3.42,-2.35 1.07,-0.428 0.94,1.154 0.812,0.727 0.94,0.3 0.427,0.128 0.513,2.223 0.385,0.47 0.983,-0.342 -0.684,1.325 3.72,1.753 -0.47,0.257"
       fill="#335061"
       id="path1094"
       style="stroke-width:3.41078" /><path
       d="M 9.21,7.96 10.322,7.575 11.22,8.003 11.648,8.943 12.161,8.857 12.289,8.344 12.032,7.361 12.289,5.009 12.075,3.726 12.845,2.828 14.512,1.503 14.042,0.863 11.69,2.017 10.707,2.787 10.151,3.984 9.296,5.138 9.039,6.506 9.209,7.96"
       fill="#6d6b6d"
       id="path1096"
       style="stroke-width:3.41078" /><path
       d="m 10.962,3.94 c 0,0 0.64,-1.582 3.207,-2.35 2.567,-0.768 0.128,-0.556 0.128,-0.556 l -2.78,1.07 -1.07,1.07 -0.47,0.855 0.983,-0.086 M 9.68,7.66 c 0,0 -0.898,-2.993 2.523,-3.42 L 12.075,3.727 9.725,4.283 9.041,6.506 9.211,7.96 9.681,7.66"
       class="C"
       id="path1098"
       style="stroke-width:1.43711" /><path
       d="m 11.048,11.636 0.56,-0.542 a 0.36,0.36 0 0 0 0.295,0.329 c 0.043,0.3 0.17,2.993 2,4.447 0.168,0.133 -1.368,-0.214 -1.368,-0.214 l -1.368,-2.138 m 7.738,-2.695 c 0,0 0.1,-1.296 0.45,-1.196 0.35,0.1 0.35,0.45 0.35,0.45 0,0 -0.848,0.548 -0.798,0.748"
       class="F"
       id="path1100"
       style="stroke-width:1.43711" /></g><path
     d="m 22.464,6.077 c 0,0 -0.705,0.15 -0.77,0.77 -0.065,0.62 0.77,0.128 0.898,0.086 M 17.3,6.12 c 0,0 -0.94,0.128 -0.94,0.727 0,0.599 1.07,0.556 1.368,0.3"
     class="F"
     id="path1104"
     style="stroke-width:1.43711" /><g
     class="B"
     id="g1126"
     style="stroke-width:1.43711"><path
       d="m 11.475,8.9 c 0,0 -1.625,-0.984 -1.795,-0.043 -0.17,0.941 -0.556,1.625 0.257,2.608 L 9.381,11.295 8.868,9.97 8.698,8.687 9.681,7.661 l 1.112,0.086 0.64,0.513 0.043,0.64 m 0.77,-2.694 c 0,0 0.727,-3.762 4.404,-4.5 3.027,-0.598 4.617,0.128 5.216,0.812 0,0 -2.694,-3.206 -5.26,-2.223 -2.566,0.983 -4.446,2.8 -4.406,3.943 l 0.043,1.967 m 9.92,-3.25 c 0,0 -1.24,-0.043 -1.283,1.07 a 0.86,0.86 0 0 0 0.085,0.342 c 0,0 0.984,-1.112 1.582,-0.513 m -5.813,0.628 c 0,0 -0.213,-1.706 -1.668,-0.714 -0.94,0.64 -0.855,1.54 -0.684,1.7 0.171,0.16 0.125,0.515 0.255,0.28 0.13,-0.235 0.087,-1.006 0.558,-1.22 0.471,-0.214 1.24,-0.453 1.54,-0.055"
       class="F"
       id="path1106"
       style="stroke-width:1.43711" /><path
       d="m 12.715,16.04 -4.02,1.796 c 0,0 1.667,6.627 0.812,8.68 L 8.907,26.302 8.864,23.779 7.756,19 l -0.47,-1.325 4.2,-2.822 1.24,1.197 m 0.404,3.655 0.57,0.696 v 2.565 h -0.684 l -0.085,-2 c 0,-0.214 0.085,-0.983 0.085,-0.983 m 0.127,3.367 -1.924,0.085 0.556,0.385 1.368,0.214"
       fill="#49728b"
       id="path1108"
       style="stroke-width:3.41078" /><g
       fill="#335061"
       id="g1114"
       style="stroke-width:3.41078"><path
         d="m 19.727,22.923 1.582,-0.043 0.385,3.934 -1.625,0.214 -0.342,-4.104"
         id="path1110"
         style="stroke-width:1.43711" /><path
         d="m 20.155,22.923 2.394,-0.128 0.983,-2.608 c 0,-0.128 0.855,-3.59 0.855,-3.59 l -1.924,-2.01 -0.385,-0.342 -1.026,1.026 v 3.976 l -0.898,3.677"
         id="path1112"
         style="stroke-width:1.43711" /></g><path
       d="m 21.224,22.624 -1.496,0.3 0.214,1.197 c 0.556,0.257 1.496,-0.428 1.496,-0.428 m -0.172,-8.55 2.993,2.223 0.086,-1.026 -2.266,-2.095 -0.812,0.898"
       fill="#49728b"
       id="path1116"
       style="stroke-width:3.41078" /><path
       d="m 14.627,31.346 -0.885,-3.592 -0.44,-2.65 -0.073,-1.967 4.006,-0.213 h 2.493 l -0.227,4.5 0.385,3.463 -0.043,0.64 -3.25,0.257 -1.967,-0.428"
       fill="#ffffff"
       id="path1118"
       style="stroke-width:3.41078" /><path
       d="m 19.17,22.88 c 0,0 -0.214,4.447 0.428,7.6 0,0 -1.283,0.812 -3.164,1.026 l 3.59,-0.128 0.428,-0.257 -0.513,-7.012 -0.128,-1.497"
       class="C"
       id="path1120"
       style="stroke-width:1.43711" /><path
       d="m 21.767,26.472 1.667,-0.47 3.164,-0.17 0.47,-1.454 -0.855,-2.523 -0.983,-0.128 -1.368,0.428 -1.313,0.64 -0.697,-0.128 -0.543,0.213"
       fill="#ffffff"
       id="path1122"
       style="stroke-width:3.41078" /><path
       d="m 21.737,25.616 c 0,0 1.112,-0.513 1.283,-0.47 l -0.47,-2.352 0.556,-0.214 0.385,2.48 2.608,0.128 c 0,0 0.513,-0.983 0.385,-2 l 0.47,1.368 0.043,0.77 -0.684,1.026 -0.77,0.17 -1.283,-0.043 -0.428,-0.556 -1.496,0.214 -0.47,0.17"
       class="C"
       id="path1124"
       style="stroke-width:1.43711" /></g><path
     d="m 20.056,22.58 -0.94,-2.394 -0.983,-1.41 c 0,0 0.214,-0.6 0.513,-0.6 h 0.983 l 0.94,0.342 -0.085,1.582 -0.428,2.48"
     fill="#ffffff"
     id="path1128"
     style="stroke-width:3.41078" /><path
     d="m 20.24,21.77 c 0,0 -1.197,-2.31 -1.197,-2.65 0,0 0.214,-0.513 0.513,-0.385 0.299,0.128 0.94,0.47 0.94,0.47 v -0.812 l -1.454,-0.3 -0.983,0.128 1.667,3.934 0.342,0.043"
     class="B C"
     id="path1130"
     style="stroke-width:1.43711" /><path
     d="m 15.01,16.125 -1.184,-0.13 -1.112,-0.342 v 0.385 l 0.543,0.6 1.7,0.77"
     fill="#ffffff"
     id="path1132"
     style="stroke-width:3.41078" /><g
     class="B"
     id="g1138"
     style="stroke-width:1.43711"><path
       d="m 13.1,16.254 c 0,0 1.325,0.556 1.753,0.428 l 0.043,0.513 -1.197,-0.256 -0.727,-0.513 0.128,-0.17"
       class="C"
       id="path1134"
       style="stroke-width:1.43711" /><path
       d="m 21.762,18.323 c -0.725,-0.02 -1.38,-0.107 -1.955,-0.27 0.04,-0.235 -0.034,-0.466 0.025,-0.636 0.16,-0.115 0.428,-0.113 0.67,-0.14 -0.21,-0.103 -0.503,-0.143 -0.744,-0.084 -0.006,-0.163 -0.08,-0.264 -0.123,-0.392 0.408,-0.146 1.37,-1.1 1.912,-0.784 0.258,0.15 0.368,1.01 0.388,1.426 0.017,0.346 -0.03,0.696 -0.173,0.88"
       class="D"
       id="path1136"
       style="stroke-width:1.43711" /></g><path
     d="m 21.762,18.323 c -0.725,-0.02 -1.38,-0.107 -1.955,-0.27 0.04,-0.235 -0.034,-0.466 0.025,-0.636 0.16,-0.115 0.428,-0.113 0.67,-0.14 -0.21,-0.103 -0.503,-0.143 -0.744,-0.084 -0.006,-0.163 -0.08,-0.264 -0.123,-0.392 0.408,-0.146 1.37,-1.1 1.912,-0.784 0.258,0.15 0.368,1.01 0.388,1.426 0.017,0.346 -0.03,0.696 -0.173,0.88 z"
     fill="none"
     class="G H"
     id="path1140" /><path
     d="m 18.293,17.137 -0.006,0.166 c -0.227,0.15 -0.592,0.147 -0.84,0.272 0.366,0.016 0.655,0.104 0.905,0.23 l -0.016,0.415 c -0.415,0.284 -0.794,0.708 -1.283,0.974 -0.23,0.126 -1.042,0.45 -1.288,0.393 -0.14,-0.032 -0.152,-0.205 -0.207,-0.368 -0.118,-0.35 -0.39,-0.903 -0.415,-1.428 -0.03,-0.663 -0.097,-1.773 0.617,-1.637 a 6.38,6.38 0 0 1 1.692,0.619 c 0.273,0.15 0.43,0.333 0.844,0.365"
     class="B D"
     id="path1142"
     style="stroke-width:1.43711" /><path
     d="m 18.293,17.137 -0.006,0.166 c -0.227,0.15 -0.592,0.147 -0.84,0.272 0.366,0.016 0.655,0.104 0.905,0.23 l -0.016,0.415 c -0.415,0.284 -0.794,0.708 -1.283,0.974 -0.23,0.126 -1.042,0.45 -1.288,0.393 -0.14,-0.032 -0.152,-0.205 -0.207,-0.368 -0.118,-0.35 -0.39,-0.903 -0.415,-1.428 -0.03,-0.663 -0.097,-1.773 0.617,-1.637 a 6.38,6.38 0 0 1 1.692,0.619 c 0.273,0.15 0.43,0.333 0.844,0.365 z"
     fill="none"
     class="G H"
     id="path1144" /><path
     d="m 18.705,17.928 c -0.063,-0.36 -0.137,-0.464 -0.108,-0.78 0.963,-0.642 1.143,1.102 0.108,0.78"
     class="B D"
     id="path1146"
     style="stroke-width:1.43711" /><path
     d="m 18.705,17.928 c -0.063,-0.36 -0.137,-0.464 -0.108,-0.78 0.963,-0.642 1.143,1.102 0.108,0.78 z"
     fill="none"
     class="G H"
     id="path1148" /><path
     d="m 20.1,18.22 c 0,0 -0.3,-0.428 -0.086,-0.556 0.214,-0.128 0.428,0 0.556,-0.214 0.128,-0.214 0,-0.342 0.043,-0.6 0.043,-0.258 0.257,-0.3 0.47,-0.342 0.213,-0.042 0.812,-0.128 0.898,0.086 l -0.257,-0.77 -0.513,-0.17 -1.625,0.94 -0.086,0.47 v 0.94 m -3.9,1.626 -0.166,-2 c -0.1,-0.995 0.24,-0.822 1.102,-0.822 0.132,0 0.8,0.157 0.86,0.257 0.233,0.476 -0.4,0.37 0.27,0.73 0.556,0.303 1.538,-0.184 1.313,-0.858 -0.126,-0.15 -0.655,-0.047 -0.845,-0.145 l -1.002,-0.52 c -0.425,-0.22 -1.407,-0.542 -1.86,-0.234 -1.148,0.78 0.072,2.732 0.482,3.546"
     fill="#ef3d3a"
     class="B"
     id="path1150"
     style="stroke-width:3.41078" /><path
     d="m 16.735,4.483 c -1.165,-0.27 -1.744,0.488 -2.098,1.275 -0.315,-0.076 -0.2,-0.505 -0.1,-0.724 0.2,-0.574 1.05,-1.337 1.736,-1.234 0.296,0.045 0.696,0.315 0.472,0.683 m 5.668,1.317 0.055,0.002 c 0.263,0.547 0.5,1.127 0.823,1.6 C 23.068,7.92 21.606,8.379 21.628,7.448 21.944,7.31 22.49,7.42 22.771,7.243 22.609,6.798 22.375,6.419 22.411,5.79 m -5.08,0.034 c 0.25,0.458 0.33,0.94 0.686,1.285 0.16,0.156 0.47,0.346 0.317,0.78 a 1,1 0 0 1 -0.45,0.375 c -0.555,0.164 -1.85,0.034 -1.4,-0.658 0.46,0.02 1.076,0.298 1.42,-0.035 -0.264,-0.42 -0.733,-1.255 -0.56,-1.746 m 4.87,4.655 c -0.836,0.537 -1.768,1.12 -3.138,0.986 -0.293,-0.254 -0.404,-0.82 -0.12,-1.195 0.148,0.254 0.055,0.723 0.468,0.793 0.777,0.133 1.682,-0.475 2.24,-0.688 0.347,-0.585 -0.03,-0.8 -0.342,-1.176 -0.64,-0.77 -1.497,-1.726 -1.466,-2.88 0.258,-0.187 0.28,0.286 0.318,0.372 0.334,0.78 1.174,1.78 1.787,2.45 0.15,0.165 0.4,0.323 0.426,0.432 0.08,0.317 -0.207,0.696 -0.174,0.907 M 11.183,9.914 C 10.921,9.764 10.859,9.106 10.551,9.087 10.111,9.06 10.191,9.942 10.193,10.457 9.89,10.182 9.837,9.337 10.059,8.902 9.806,8.778 9.692,9.039 9.552,9.132 c 0.18,-1.312 1.92,-0.6 1.63,0.783 m 11.555,1.1 c -0.4,0.74 -0.94,1.556 -2.082,1.58 -0.023,-0.24 -0.04,-0.603 10e-4,-0.747 0.873,-0.084 1.412,-0.528 2.08,-0.833 m -5.47,0.48 c 0.728,0.383 2.067,0.424 3.057,0.395 0.053,0.217 0.052,0.485 0.054,0.75 -1.273,0.063 -2.777,-0.25 -3.1,-1.145 m -0.14,0.714 c 0.504,1.265 2.235,1.12 3.695,1.084 -0.064,0.164 -0.204,0.358 -0.377,0.428 -0.468,0.2 -1.758,0.335 -2.407,-0.01 -0.412,-0.22 -0.676,-0.714 -0.902,-1.004 -0.1,-0.14 -0.652,-0.498 -0.008,-0.5"
     class="E B"
     id="path1152"
     style="stroke-width:1.43711" /><path
     d="m 22.144,19.196 -1.858,2.945 c 0.294,-0.864 0.42,-2.31 0.464,-3.414 0.615,-0.288 1.142,0.065 1.394,0.47"
     fill="#81b0c4"
     class="B"
     id="path1154"
     style="stroke-width:3.41078" /><path
     d="m 25.324,22.834 c -0.662,0.132 -1.127,0.776 -1.772,0.734 0.355,-0.5 0.976,-0.7 1.772,-0.734 m 0.292,1.036 c -0.54,0.057 -1.173,0.144 -1.72,0.1 0.26,-0.396 1.257,-0.26 1.72,-0.1 m 0.187,0.892 c -0.606,0.013 -1.36,0.001 -1.936,-0.047 0.34,-0.366 1.543,-0.136 1.936,0.047"
     class="E B"
     id="path1156"
     style="stroke-width:1.43711" /><path
     d="m 21.003,27.206 c 0.087,0.76 0.39,1.533 0.35,2.366 -0.335,0.113 -0.528,0.212 -0.977,0.21 l -0.098,-2.467 c 0.22,0.015 0.547,-0.158 0.724,-0.1"
     class="B C"
     id="path1158"
     style="stroke-width:1.43711" /><path
     d="m 20.026,15.986 c -0.304,0.2 -0.564,0.447 -0.856,0.66 -0.648,0.032 -1.002,-0.045 -1.478,-0.417 0.008,-0.03 0.056,-0.017 0.057,-0.053 0.694,0.31 1.576,-0.126 2.277,-0.19"
     fill="#f0d6b7"
     class="B"
     id="path1160"
     style="stroke-width:3.41078" /><path
     d="m 16.383,20.716 c 0.19,-0.826 0.938,-1.254 1.616,-1.71 0.7,0.89 1.126,2.03 1.595,3.134 -1.108,-0.334 -2.24,-0.876 -3.21,-1.425"
     fill="#81b0c4"
     class="B"
     id="path1162"
     style="stroke-width:3.41078" /><path
     d="m 20.28,27.316 c -0.028,0.675 0.066,1.76 0.098,2.467 0.45,10e-4 0.642,-0.098 0.977,-0.21 0.038,-0.834 -0.264,-1.605 -0.35,-2.366 -0.177,-0.047 -0.503,0.125 -0.724,0.1 z m -6.992,-3.84 c 0.296,2.722 0.725,5 1.512,7.42 1.746,0.53 3.85,0.576 5.394,0.098 -0.283,-1.36 -0.16,-3.017 -0.325,-4.47 l -0.232,-3.303 c -1.87,-0.39 -4.513,-0.09 -6.348,0.252 z m 6.8,-0.235 c -0.016,1.17 0.052,2.322 0.142,3.493 L 21.4,26.53 c -0.135,-1.127 -0.12,-2.395 -0.395,-3.392 -0.32,0.003 -0.6,-0.004 -0.918,0.103 z m 2.277,-0.188 c -0.213,-0.05 -0.46,-0.002 -0.665,0.002 l 0.4,3.005 c 0.32,0.01 0.49,-0.14 0.755,-0.192 0.014,-0.878 -0.077,-2.088 -0.5,-2.815 z m 3.448,3.15 c 0.668,-0.162 1.087,-0.98 0.9,-1.82 -0.125,-0.564 -0.348,-1.627 -0.587,-1.988 -0.176,-0.267 -0.655,-0.617 -1.037,-0.372 -0.622,0.398 -1.717,0.514 -2.17,0.995 0.227,0.757 0.298,1.796 0.392,2.755 0.777,0.048 1.732,-0.214 2.378,0.064 -0.45,0.146 -1.036,0.147 -1.425,0.36 0.318,0.154 1.064,0.123 1.55,0.005 z m -6.208,-4.06 c -0.47,-1.103 -0.895,-2.246 -1.595,-3.134 -0.678,0.455 -1.425,0.883 -1.616,1.71 0.97,0.55 2.103,1.09 3.21,1.425 z m 1.156,-3.415 c -0.044,1.103 -0.17,2.55 -0.464,3.414 0.7,-0.893 1.267,-1.933 1.858,-2.945 -0.252,-0.404 -0.78,-0.757 -1.394,-0.47 z m -1.3,-0.466 c -0.266,-0.03 -0.49,0.305 -0.837,0.16 l -0.232,0.268 c 0.763,0.92 1.1,2.224 1.7,3.304 0.316,-1.038 0.28,-2.175 0.35,-3.308 -0.434,0.028 -0.675,-0.393 -0.98,-0.425 z M 18.618,17.15 c -0.028,0.315 0.045,0.418 0.108,0.78 1.035,0.324 0.854,-1.42 -0.108,-0.78 z M 17.47,16.773 a 6.38,6.38 0 0 0 -1.692,-0.619 c -0.714,-0.137 -0.647,0.974 -0.617,1.637 0.024,0.525 0.297,1.08 0.415,1.428 0.056,0.163 0.068,0.335 0.207,0.368 0.246,0.057 1.057,-0.267 1.288,-0.393 0.49,-0.267 0.868,-0.7 1.283,-0.974 l 0.016,-0.415 c -0.25,-0.124 -0.538,-0.213 -0.905,-0.23 0.25,-0.125 0.614,-0.123 0.84,-0.272 l 0.006,-0.166 c -0.414,-0.032 -0.57,-0.216 -0.844,-0.365 z m -4.26,-0.774 c -0.37,0.376 1.038,0.888 1.487,0.916 -0.003,-0.238 0.136,-0.462 0.108,-0.633 -0.533,-0.094 -1.233,-0.032 -1.594,-0.283 z m 4.56,0.176 c -0.002,0.037 -0.05,0.023 -0.057,0.053 0.476,0.372 0.83,0.45 1.478,0.417 l 0.856,-0.66 c -0.7,0.063 -1.583,0.498 -2.277,0.19 z m 4.186,1.27 c -0.02,-0.418 -0.13,-1.276 -0.388,-1.426 -0.542,-0.316 -1.505,0.638 -1.912,0.784 0.044,0.128 0.118,0.23 0.123,0.392 0.24,-0.06 0.535,-0.02 0.744,0.084 -0.242,0.027 -0.5,0.025 -0.67,0.14 -0.06,0.17 0.014,0.4 -0.025,0.636 0.574,0.162 1.23,0.248 1.955,0.27 0.14,-0.183 0.19,-0.533 0.173,-0.88 z m -9.37,-1.082 c -0.116,-0.083 -0.903,-1.106 -1,-1.064 -1.423,0.56 -2.753,1.53 -3.942,2.45 1.134,2.432 1.59,5.413 1.672,8.285 1.3,0.607 2.44,1.483 4.2,1.574 L 13.01,23.52 c -0.443,-0.187 -1.078,0.008 -1.492,-0.058 -0.004,-0.5 0.633,-0.22 0.686,-0.554 0.04,-0.254 -0.35,-0.273 -0.223,-0.673 0.324,0.118 0.494,0.378 0.84,0.475 0.316,-0.69 -0.004,-1.912 0.04,-2.5 0.01,-0.108 0.054,-0.6 0.297,-0.514 0.215,0.076 -0.012,1.31 0.01,1.855 0.02,0.503 -0.06,1 0.143,1.306 1.703,-0.232 3.433,-0.382 5.275,-0.432 -0.405,-0.174 -0.887,-0.34 -1.415,-0.636 -0.286,-0.16 -1.188,-0.497 -1.27,-0.77 -0.132,-0.433 0.346,-0.664 0.427,-1.035 -0.86,0.47 -1.027,-0.45 -1.23,-1.1 -0.184,-0.59 -0.29,-1.03 -0.334,-1.37 -0.74,-0.353 -1.532,-0.7 -2.17,-1.163 z m 8.617,-0.94 c 1.186,-0.575 1.4,2.15 0.935,3.026 0.072,0.262 0.32,0.362 0.42,0.597 l -2.07,3.463 c 0.502,-0.313 1.22,-0.056 1.8,-0.3 0.216,-0.085 0.372,-0.58 0.536,-0.975 0.45,-1.088 0.922,-2.46 1.132,-3.5 0.047,-0.237 0.177,-0.752 0.148,-0.963 -0.052,-0.377 -0.563,-0.657 -0.824,-0.9 L 22,14.659 c -0.203,0.3 -0.638,0.5 -0.804,0.744 z M 9.855,4.908 C 9.29,5.53 9.408,6.694 9.477,7.523 c 1.02,-0.642 2.376,0.05 2.364,1.143 0.488,-0.013 0.182,-0.61 0.094,-0.993 C 11.647,6.419 12.421,5.057 11.97,3.91 11.095,3.976 10.377,4.334 9.856,4.908 Z M 13.897,1.3 c -1.28,0.362 -2.918,1.292 -3.443,2.44 0.407,-0.06 0.69,-0.264 1.09,-0.3 0.152,-0.01 0.35,0.064 0.525,0.02 0.347,-0.086 0.64,-0.865 0.903,-1.155 0.256,-0.283 0.563,-0.404 0.773,-0.662 0.135,-0.065 0.335,-0.06 0.342,-0.263 -0.06,-0.063 -0.12,-0.1 -0.2,-0.1 z m 6.657,0.34 C 19.227,0.893 16.98,0.33 15.568,1.033 c -1.14,0.568 -2.68,1.508 -3.205,2.7 0.49,1.15 -0.145,2.203 -0.186,3.37 -0.022,0.62 0.292,1.163 0.316,1.84 -0.168,0.277 -0.68,0.31 -1.036,0.292 -0.12,-0.598 -0.33,-1.27 -0.944,-1.338 -0.87,-0.095 -1.508,0.626 -1.548,1.38 -0.047,0.886 0.68,2.355 1.712,2.253 0.398,-0.04 0.496,-0.44 0.93,-0.435 0.235,0.47 -0.363,0.617 -0.424,0.952 -0.016,0.087 0.05,0.426 0.088,0.585 0.187,0.774 0.605,1.775 1.016,2.364 0.522,0.747 1.546,0.86 2.65,0.933 0.197,-0.424 0.922,-0.39 1.395,-0.278 -0.566,-0.224 -1.093,-0.768 -1.53,-1.25 -0.5,-0.552 -1.01,-1.145 -1.035,-1.867 0.947,1.314 1.73,2.462 3.452,3.04 1.303,0.437 2.826,-0.2 3.827,-0.904 0.416,-0.292 0.664,-0.756 0.96,-1.18 1.105,-1.6 1.62,-3.86 1.508,-6.06 C 23.467,6.523 23.469,5.62 23.164,5.01 22.846,4.372 21.77,3.8 21.14,4.378 21.023,3.758 21.664,3.374 22.416,3.598 21.88,2.906 21.316,2.074 20.554,1.644 Z m 2.473,20.467 c 1.037,-0.516 2.975,-1.388 3.626,0.002 0.24,0.512 0.522,1.378 0.646,1.907 0.176,0.746 -0.2,2.314 -0.957,2.565 -0.677,0.22 -1.468,0.208 -2.284,0.044 -0.096,-0.08 -0.203,-0.22 -0.278,-0.364 -0.583,-0.023 -1.128,0.03 -1.588,0.27 0.044,0.43 -0.248,0.5 -0.52,0.59 -0.203,0.803 0.405,1.852 0.26,2.584 -0.104,0.522 -0.746,0.602 -1.217,0.7 -0.015,0.3 0.02,0.532 0.053,0.777 -0.108,0.397 -0.592,0.624 -1.05,0.68 -1.508,0.18 -3.798,0.263 -5.25,-0.26 -0.405,-0.993 -0.724,-2.2 -1.06,-3.335 -1.415,0.15 -2.56,-0.61 -3.638,-1.11 C 9.396,26.984 8.87,26.887 8.74,26.591 8.605,26.303 8.66,25.751 8.627,25.231 8.542,23.901 8.467,22.616 8.127,21.253 7.969,20.641 7.694,20.103 7.502,19.513 7.325,18.967 7.015,18.293 6.934,17.747 6.814,16.94 7.574,16.895 8.06,16.545 c 0.75,-0.54 1.34,-0.84 2.155,-1.328 0.24,-0.145 0.968,-0.5 1.05,-0.68 0.164,-0.334 -0.282,-0.805 -0.4,-1.067 -0.19,-0.414 -0.287,-0.766 -0.314,-1.175 C 9.868,12.187 9.351,11.781 9.038,11.323 8.521,10.565 8.162,9.163 8.61,8.096 8.645,8.012 8.81,7.846 8.846,7.718 8.896,7.464 8.75,7.126 8.741,6.856 c -0.047,-1.387 0.235,-2.58 1.168,-3 0.38,-1.5 1.735,-2.01 3.013,-2.762 0.478,-0.28 1.004,-0.46 1.548,-0.66 1.95,-0.718 4.944,-0.583 6.563,0.642 0.686,0.52 1.784,1.615 2.176,2.41 1.037,2.095 0.963,5.597 0.238,8.146 -0.097,0.342 -0.24,0.845 -0.436,1.256 -0.138,0.287 -0.565,0.86 -0.513,1.115 0.053,0.262 0.975,0.962 1.173,1.153 0.356,0.343 1.032,0.8 1.087,1.232 0.06,0.46 -0.203,1.092 -0.336,1.537 l -1.38,4.18"
     class="B E"
     id="path1164"
     style="stroke-width:1.43711" /><path
     d="m 16.107,11.83 c 0.056,-0.075 0.366,-0.19 0.8,0.02 0,0 -0.513,0.086 -0.47,0.94 l -0.214,-0.043 c 0,0 -0.22,-0.776 -0.114,-0.918"
     class="B F"
     id="path1166"
     style="stroke-width:1.43711" /><path
     d="m 19.856,19.182 c 0,0.13 -0.105,0.235 -0.235,0.235 -0.13,0 -0.235,-0.105 -0.235,-0.235 0,-0.13 0.105,-0.235 0.235,-0.235 0.13,0 0.235,0.105 0.235,0.235 m 0.234,1.1 c 0,0.13 -0.105,0.235 -0.235,0.235 -0.13,0 -0.235,-0.105 -0.235,-0.235 0,-0.13 0.105,-0.235 0.235,-0.235 0.13,0 0.235,0.105 0.235,0.235"
     fill="#1d1919"
     class="B"
     id="path1168"
     style="stroke-width:3.41078" /></g><g
   style="fill-rule:evenodd;stroke-width:1.74423"
   id="g1274"
   transform="matrix(0.49422092,0.24375148,-0.26383987,0.53495136,48.162415,10.017197)"><path
     d="M 32,61.477 43.784,25.2 H 20.216 Z"
     fill="#e24329"
     id="path1245"
     style="stroke-width:3.04233" /><path
     d="M 32,61.477 20.216,25.2 H 3.7 Z"
     fill="#fc6d26"
     id="path1247"
     style="stroke-width:3.04233" /><path
     d="M 3.7,25.2 0.12,36.23 a 2.44,2.44 0 0 0 0.886,2.728 L 32,61.477 Z"
     fill="#fca326"
     id="path1249"
     style="stroke-width:3.04233" /><path
     d="M 3.7,25.2 H 20.215 L 13.118,3.366 c -0.365,-1.124 -1.955,-1.124 -2.32,0 z"
     fill="#e24329"
     id="path1251"
     style="stroke-width:3.04233" /><path
     d="M 32,61.477 43.784,25.2 H 60.3 Z"
     fill="#fc6d26"
     id="path1253"
     style="stroke-width:3.04233" /><path
     d="m 60.3,25.2 3.58,11.02 a 2.44,2.44 0 0 1 -0.886,2.728 L 32,61.477 Z"
     fill="#fca326"
     id="path1255"
     style="stroke-width:3.04233" /><path
     d="M 60.3,25.2 H 43.784 L 50.882,3.356 c 0.365,-1.124 1.955,-1.124 2.32,0 z"
     fill="#e24329"
     id="path1257"
     style="stroke-width:3.04233" /></g><g
   transform="matrix(0.20197327,0.10453708,0.11748581,-0.22941414,76.927863,118.44797)"
   id="g1378"
   style="stroke-width:1.47183"><g
     clip-path="url(#C)"
     id="g1346"
     style="stroke-width:1.47183"><use
       xlink:href="#D"
       fill="#a0dcf2"
       id="use1344"
       x="0"
       y="0"
       width="100%"
       height="100%"
       style="stroke-width:2.04789" /></g><g
     clip-path="url(#B)"
     id="g1350"
     style="stroke-width:1.47183"><use
       xlink:href="#D"
       fill="#82bde7"
       id="use1348"
       x="0"
       y="0"
       width="100%"
       height="100%"
       style="stroke-width:2.04789" /></g><g
     clip-path="url(#A)"
     id="g1376"
     style="stroke-width:1.47183"><path
       d="m 50.7,106.8 -1.453,-5.063 c 0,0 -0.378,-1.83 1.346,-2.154 1.8,0.035 1.653,1.72 1.527,2.266 l -1.42,4.95 z"
       fill="#a0dcf2"
       id="path1352"
       style="stroke-width:2.04789" /><path
       d="m 197.042,128.027 0.133,0.658 c -14.768,2.953 -29.922,2.983 -39.1,2.602 1.506,5.426 1.96,11.67 1.96,18.633 0,9.986 -3.752,17.975 -9.843,24.054 1.065,3.435 2.487,11.066 -1.42,20.833 0,0 -6.9,2.188 -22.476,-8.243 -6.106,1.526 -12.604,2.28 -19.112,2.28 -7.16,0 -14.395,-0.912 -21.143,-2.763 -16.086,10.975 -23.186,8.727 -23.186,8.727 -4.636,-11.6 -1.77,-20.17 -0.9,-22.302 -5.448,-5.88 -8.774,-13.384 -8.774,-22.585 0,-6.947 0.792,-13.178 2.724,-18.594 -9.247,0.336 -23.85,0.207 -38.1,-2.64 l 0.132,-0.658 c 14.325,2.865 29.018,2.965 38.2,2.617 0.425,-1.12 0.9,-2.2 1.43,-3.26 -9.088,-0.293 -24.604,-1.45 -39.475,-5.646 l 0.182,-0.645 c 14.988,4.227 30.64,5.356 39.64,5.63 5.43,-10.12 16.135,-16.658 35.18,-18.7 -2.704,-1.816 -5.46,-4.904 -6.58,-10.13 -3.683,-1.76 -15.343,-6.062 -22.34,5.97 0,0 -3.916,7.16 -11.412,7.72 0,0 -7.27,0.1 -0.503,-4.53 0,0 4.867,-2.293 8.223,-10.9 0,0 4.38,-14.695 25.512,-9.98 v -15.18 c 0,0 -0.447,-5.37 -5.37,-7.158 0,0 -2.908,-2.014 0.224,-3.13 0,0 13.645,-1.12 13.645,10.065 v 16.552 c 0,0 -0.54,6.565 2.683,8.846 V 68.963 c 0,0 -0.222,-6.487 -3.578,-8.948 0,0 -2.237,-4.025 2.684,-2.908 0,0 9.394,1.342 9.842,12.303 l 0.214,27.513 h 2.257 L 108.81,69.41 c 0.447,-10.96 9.842,-12.303 9.842,-12.303 4.92,-1.117 2.683,2.908 2.683,2.908 -3.355,2.46 -3.578,8.948 -3.578,8.948 v 26.953 c 3.223,-2.5 2.684,-8.612 2.684,-8.612 V 70.752 c 0,-11.184 13.644,-10.065 13.644,-10.065 3.13,1.117 0.225,3.13 0.225,3.13 -4.922,1.8 -5.37,7.158 -5.37,7.158 v 21.697 c 0,8.46 -3.563,12.942 -7.047,15.307 20.3,2.014 30.056,8.572 34.548,18.762 8.896,-0.244 24.906,-1.328 40.22,-5.65 l 0.182,0.645 c -15.227,4.295 -31.13,5.406 -40.117,5.668 0.426,1.03 0.797,2.1 1.127,3.2 9.105,0.4 24.328,0.385 39.154,-2.58"
       fill="#292929"
       id="path1354"
       style="stroke-width:2.04789" /><path
       d="m 140.178,150.4 c 4.375,-3.963 6.934,-8.75 6.934,-13.905 0,-24.075 -17.948,-24.728 -40.085,-24.728 -22.137,0 -40.087,3.323 -40.087,24.718 0,5.122 2.524,9.878 6.845,13.825 7.206,6.578 19.404,3.095 33.24,3.095 13.782,0 25.934,3.518 33.15,-3.015"
       fill="#f5cdb5"
       id="path1356"
       style="stroke-width:2.04789" /><path
       d="m 93.697,135.258 c 0,-6.63 -3.734,-12.006 -8.34,-12.006 -4.606,0 -8.342,5.375 -8.342,12.006 0,6.631 3.736,12.004 8.342,12.004 4.606,0 8.34,-5.373 8.34,-12.004"
       fill="#ffffff"
       id="path1358"
       style="stroke-width:2.04789" /><path
       d="m 91.02,135.107 c 0,-4.42 -2.5,-8.002 -5.56,-8.002 -3.06,0 -5.56,3.582 -5.56,8.002 0,4.42 2.488,8.006 5.56,8.006 3.072,0 5.56,-3.584 5.56,-8.006"
       fill="#b1645a"
       id="path1360"
       style="stroke-width:2.04789" /><path
       d="m 138.443,135.258 c 0,-6.63 -3.734,-12.006 -8.342,-12.006 -4.608,0 -8.34,5.375 -8.34,12.006 0,6.631 3.735,12.004 8.34,12.004 4.605,0 8.342,-5.373 8.342,-12.004"
       fill="#ffffff"
       id="path1362"
       style="stroke-width:2.04789" /><path
       d="m 135.766,135.107 c 0,-4.42 -2.5,-8.002 -5.56,-8.002 -3.06,0 -5.56,3.582 -5.56,8.002 0,4.42 2.5,8.006 5.56,8.006 3.06,0 5.56,-3.584 5.56,-8.006 m -26.536,-10.5 c 0,-1.152 -0.934,-2.086 -2.086,-2.086 -1.152,0 -2.086,0.934 -2.086,2.086 0,1.152 0.933,2.086 2.086,2.086 1.153,0 2.086,-0.934 2.086,-2.086 m -6.945,-5.275 a 0.67082673,0.67082673 0 1 0 1.265,0.447 c 0.536,-1.515 1.973,-2.533 3.577,-2.533 1.604,0 3.04,1.018 3.578,2.533 a 0.67035532,0.67035532 0 1 0 1.264,-0.447 5.15,5.15 0 0 0 -9.684,0"
       fill="#b1645a"
       id="path1364"
       style="stroke-width:2.04789" /><g
       fill="#c5e6da"
       id="g1374"
       style="stroke-width:2.04789"><path
         d="m 56.04,109.785 c 0,-0.557 -0.652,-1.006 -1.455,-1.006 -0.803,0 -1.454,0.45 -1.454,1.006 0,0.556 0.65,1.008 1.454,1.008 0.804,0 1.455,-0.45 1.455,-1.008 m 4.028,-2.235 c 0,-0.557 -0.652,-1.008 -1.455,-1.008 -0.803,0 -1.454,0.45 -1.454,1.008 0,0.558 0.65,1.006 1.454,1.006 0.804,0 1.455,-0.45 1.455,-1.006 m 2.462,-2.9 c 0,-0.555 -0.65,-1.006 -1.455,-1.006 -0.805,0 -1.453,0.45 -1.453,1.006 0,0.556 0.65,1.008 1.453,1.008 0.803,0 1.455,-0.45 1.455,-1.008 m 2.235,-3.357 c 0,-0.557 -0.65,-1.008 -1.453,-1.008 -0.803,0 -1.455,0.45 -1.455,1.008 0,0.558 0.65,1.008 1.455,1.008 0.805,0 1.453,-0.45 1.453,-1.008 m 2.462,-3.143 c 0,-0.555 -0.65,-1.006 -1.454,-1.006 -0.804,0 -1.455,0.45 -1.455,1.006 0,0.556 0.652,1.008 1.455,1.008 0.803,0 1.454,-0.45 1.454,-1.008 m 3.357,-2.683 c 0,-0.557 -0.65,-1.008 -1.455,-1.008 -0.805,0 -1.453,0.45 -1.453,1.008 0,0.558 0.65,1.006 1.453,1.006 0.803,0 1.455,-0.45 1.455,-1.006"
         id="path1366"
         style="stroke-width:1.47183" /><use
         xlink:href="#E"
         id="use1368"
         x="0"
         y="0"
         width="100%"
         height="100%"
         style="stroke-width:1.47183" /><use
         xlink:href="#E"
         x="4.6760001"
         id="use1370"
         y="0"
         width="100%"
         height="100%"
         style="stroke-width:1.47183" /><path
         d="m 84.704,94.455 c 0,-0.557 -0.65,-1.008 -1.454,-1.008 -0.804,0 -1.455,0.45 -1.455,1.008 0,0.558 0.65,1.008 1.455,1.008 0.805,0 1.454,-0.45 1.454,-1.008"
         id="path1372"
         style="stroke-width:1.47183" /></g></g></g><g
   style="fill-rule:evenodd;stroke-width:1.75292;stroke-linejoin:round;stroke-miterlimit:1.414"
   id="g1433"
   transform="matrix(1.038075,0.46554391,-0.46821948,1.044041,115.13708,11.477562)"><path
     d="m 25.943,22.468 c -0.272,0 -0.407,0.137 -0.407,0.137 0,0 -3.406,2.732 -9.536,2.732 -6.13,0 -9.528,-2.734 -9.528,-2.734 0,0 -0.272,-0.135 -0.407,-0.135 -0.273,0 -0.547,0.137 -0.547,0.545 v 0.135 l 0.954,5.175 C 6.88,30.366 10.967,32 15.868,32 c 4.901,0 9,-1.634 9.397,-3.677 0,-0.272 0.407,-2.314 0.945,-5.175 v -0.135 c 0.13,-0.273 0,-0.545 -0.276,-0.545 z M 16.007,0 C 8.377,0 2.112,2.04 2.112,4.627 2.112,5.31 3.746,14.977 4.428,18.79 4.7,20.56 9.196,23 16.003,23 22.81,23 27.169,20.558 27.578,18.785 l 2.3,-14.158 C 29.743,2.05 23.623,0.01 15.992,0.01 Z m 0,19.88 a 4.3,4.3 0 0 1 -4.356,-4.358 c 0,-2.457 1.904,-4.36 4.355,-4.36 a 4.3,4.3 0 0 1 4.358,4.361 c 0,2.3 -1.907,4.346 -4.358,4.346 z m 10e-4,-6.667 a 2.19,2.19 0 0 1 2.18,2.18 2.1805,2.1805 0 1 1 -4.361,0 2.19,2.19 0 0 1 2.18,-2.18 z M 16.005,5.989 c -4.904,0 -8.852,-0.814 -8.852,-1.904 0,-1.09 3.948,-1.907 8.852,-1.907 4.904,0 8.852,0.817 8.852,1.904 C 24.857,5.169 20.906,6 16.005,6 Z"
     id="path1422"
     style="stroke-width:1.75292" /></g></svg>
