<?xml version="1.0" encoding="UTF-8" standalone="no"?>
<svg
   xmlns:dc="http://purl.org/dc/elements/1.1/"
   xmlns:cc="http://creativecommons.org/ns#"
   xmlns:rdf="http://www.w3.org/1999/02/22-rdf-syntax-ns#"
   xmlns:svg="http://www.w3.org/2000/svg"
   xmlns="http://www.w3.org/2000/svg"
   xmlns:sodipodi="http://sodipodi.sourceforge.net/DTD/sodipodi-0.dtd"
   xmlns:inkscape="http://www.inkscape.org/namespaces/inkscape"
   x="0px"
   y="0px"
   viewBox="0 0 501.8 402.8"
   style="enable-background:new 0 0 501.8 402.8;"
   xml:space="preserve"
   version="1.1"
   id="svg158"
   sodipodi:docname="server-woman.svg"
   inkscape:version="1.0.2-2 (e86c870879, 2021-01-15)"><metadata
   id="metadata164"><rdf:RDF><cc:Work
       rdf:about=""><dc:format>image/svg+xml</dc:format><dc:type
         rdf:resource="http://purl.org/dc/dcmitype/StillImage" /></cc:Work></rdf:RDF></metadata><defs
   id="defs162" /><sodipodi:namedview
   pagecolor="#ffffff"
   bordercolor="#666666"
   borderopacity="1"
   objecttolerance="10"
   gridtolerance="10"
   guidetolerance="10"
   inkscape:pageopacity="0"
   inkscape:pageshadow="2"
   inkscape:window-width="2400"
   inkscape:window-height="1284"
   id="namedview160"
   showgrid="false"
   inkscape:zoom="2.0903675"
   inkscape:cx="250.89999"
   inkscape:cy="201.39999"
   inkscape:window-x="-9"
   inkscape:window-y="-9"
   inkscape:window-maximized="1"
   inkscape:current-layer="svg158" />
<style
   type="text/css"
   id="style2">
	.server-woman-0{fill:#BDC5D1;}
	.server-woman-1{fill:#E7EAF3;}
	.server-woman-2{fill:none;stroke:#E7EAF3;}
	.server-woman-3{fill:none;stroke:#1E2022;}
	.server-woman-4{fill:#377DFF;}
	.server-woman-5{fill:#FFFFFF;}
	.server-woman-6{fill:none;stroke:#FFFFFF;}
	.server-woman-7{fill:#00C9A7;}
</style>





<line
   class="server-woman-3 fill-none stroke-dark"
   stroke-width="2"
   stroke-linecap="round"
   stroke-linejoin="round"
   x1="423.9"
   y1="386.2"
   x2="393.3"
   y2="334.7"
   id="line14" />
<line
   class="server-woman-3 fill-none stroke-dark"
   stroke-width="2"
   stroke-linecap="round"
   stroke-linejoin="round"
   x1="437.7"
   y1="386.2"
   x2="407.2"
   y2="334.8"
   id="line16" />
<line
   class="server-woman-3 fill-none stroke-dark"
   stroke-width="2"
   stroke-linecap="round"
   stroke-linejoin="round"
   x1="338.5"
   y1="382.2"
   x2="366.7"
   y2="334.8"
   id="line18" />
<path
   class="server-woman-3 fill-none stroke-dark"
   stroke-width="1.25"
   stroke-linecap="round"
   stroke-linejoin="round"
   d="M412.8,219.8h43.5l-31.6,114.6h-80.2v-4.1H404l1.3-26.7"
   id="path20" />
<polyline
   class="server-woman-3 fill-none stroke-dark"
   stroke-width="1.25"
   stroke-linecap="round"
   stroke-linejoin="round"
   points="285.3,378.9 279.1,389.3 256.4,375.7 277.1,379.2 279.6,375.1 "
   id="polyline22" />
<path
   d="M316.5,294.9c-6.6,0-39.5,76.6-39.5,79.4s7.1,6,8.2,6c1.6-1.5,33.1-47,36.4-50.2C324.9,326.9,316.5,294.9,316.5,294.9z"
   id="path24" />
<path
   class="server-woman-3 fill-none stroke-dark"
   stroke-width="1.25"
   stroke-linecap="round"
   stroke-linejoin="round"
   d="M334.9,256.8c-2-1.6-4.5-2.5-7.1-2.4c-5.2,0-9.5,3.2-9.5,7.2"
   id="path26" />
<path
   class="server-woman-3 fill-none stroke-dark"
   stroke-width="1.25"
   stroke-linecap="round"
   stroke-linejoin="round"
   d="M364.9,241.6c-3.3,3-7.7,8.2-9.8,14.2"
   id="path28" />
<path
   class="server-woman-3 fill-none stroke-dark"
   stroke-width="1.25"
   stroke-linecap="round"
   stroke-linejoin="round"
   d="M382.7,224.5c-1.1-0.5-2.4-0.8-3.6-0.8c-6.7,0-18.1,12.2-18.1,13.8c0,1.3,6.1,6.6,11.9,8.3"
   id="path30" />
<path
   class="server-woman-3 fill-none stroke-dark"
   stroke-width="1.25"
   stroke-linecap="round"
   stroke-linejoin="round"
   d="M371.3,257.8c1.2-18,6.8-35.2,21.9-39.8"
   id="path32" />
<path
   class="server-woman-3 fill-none stroke-dark"
   stroke-width="1.25"
   stroke-linecap="round"
   stroke-linejoin="round"
   d="M427.1,242.8c6.8,25.6,2.2,61.1-0.9,63.4c-4.8,3.6-47,4-49.8,0.3c-1.2-1.5-4.9-17.7-5.4-35.9"
   id="path34" />
<path
   class="server-woman-3 fill-none stroke-dark"
   stroke-width="1.25"
   stroke-linecap="round"
   stroke-linejoin="round"
   d="M408.4,217.8c5.8,1.8,10.3,6.2,13.5,11.9"
   id="path36" />
<path
   class="server-woman-3 fill-none stroke-dark"
   stroke-width="1.25"
   stroke-linecap="round"
   stroke-linejoin="round"
   d="M400.8,223.1c3.8,0,7.6-0.8,7.6-2.4v-16.3"
   id="path38" />
<line
   class="server-woman-3 fill-none stroke-dark"
   stroke-width="1.25"
   stroke-linecap="round"
   stroke-linejoin="round"
   x1="393.2"
   y1="212.1"
   x2="393.2"
   y2="218"
   id="line40" />
<path
   class="server-woman-3 fill-none stroke-dark"
   stroke-width="1.25"
   stroke-linecap="round"
   stroke-linejoin="round"
   d="M399.4,211.9c-1.6,0.5-3.3,0.7-4.9,0.4c-8.2-1.3-13.2-12.2-11.3-24.4c0.1-0.5,0.2-1,0.3-1.5"
   id="path42" />
<path
   class="server-woman-3 fill-none stroke-dark"
   stroke-width="1.25"
   stroke-linecap="round"
   stroke-linejoin="round"
   d="M411.6,197.5c-0.8,2.4-1.8,4.8-3.2,6.9"
   id="path44" />
<path
   class="server-woman-3 fill-none stroke-dark"
   stroke-width="1.25"
   stroke-miterlimit="10"
   d="M415.1,167.5c2.2-3.8,7.7-10.1,18.5-10.1c7.3,0,14.7,3.9,24,3.9c7.3,0,14.2-2.9,23-2.9  c15.7,0,20.6,10.3,20.6,16.7c0,16.2-13.2,22.5-23,22.5c-15.7,0-17.6-10.8-36.3-10.8c-18.1,0-15.7-14.7-19.6-14.7  c-0.9,0-1.9,0.1-2.8,0.3"
   id="path46" />
<path
   class="server-woman-3 fill-none stroke-dark"
   stroke-width="1.25"
   stroke-linecap="round"
   stroke-linejoin="round"
   d="M410.5,202c8,0,11.8-8.2,11.8-18.6c0-17.1-15.1-20.6-21.6-20.6c-17.3,0-21,13.2-21,17s2.4,6.6,3.6,6.7  c0.8-4.6,4.4-10.8,4.6-11c1.6,1.6,3.5,2.8,5.6,3.7"
   id="path48" />
<path
   class="server-woman-3 fill-none stroke-dark"
   stroke-width="1.25"
   stroke-linecap="round"
   stroke-linejoin="round"
   d="M409.7,189.4c0.6-0.3,1.1-0.4,1.8-0.4c2.3,0,4.2,1.9,4.2,4.2s-1.9,4.2-4.2,4.2c-0.4,0-0.9-0.1-1.3-0.2"
   id="path50" />
<path
   class="server-woman-3 fill-none stroke-dark"
   stroke-width="1.25"
   stroke-linecap="round"
   stroke-linejoin="round"
   d="M371.1,270.6c5,2,9.7,3.6,15.6,3.6c4.6,0,13.4-2.9,20-10"
   id="path52" />
<path
   class="server-woman-3 fill-none stroke-dark"
   stroke-width="1.25"
   stroke-linecap="round"
   stroke-linejoin="round"
   d="M393.3,250.7c-3.5,2.6-6.5,5.9-8.7,9.7c-4-0.8-20.5-4.9-35.1-4.9c-1.4,0-4.9-1.1-6.4-1.1  c-8.6,0-10.3,4.6-10.3,6s0.3,1.4,0.6,1.4c18.9,0,28.7,5.1,37.7,8.8"
   id="path54" />
<path
   class="server-woman-3 fill-none stroke-dark"
   stroke-width="1.25"
   stroke-linecap="round"
   stroke-linejoin="round"
   d="M414.1,230.4c4.8-1.4,9.3-1.4,12.1,1.3c9.2,8.9-14,33.6-17.8,33.2c-3.7-0.4-17.1-14.5-17.3-18.8  c0-1.5,3-4.7,7.4-7.8"
   id="path56" />
<rect
   x="237.7"
   y="262.9"
   width="207.4"
   height="6.7"
   id="rect58" />
<line
   class="server-woman-3 fill-none stroke-dark"
   stroke-width="2"
   stroke-linecap="round"
   stroke-linejoin="round"
   x1="433.9"
   y1="369.4"
   x2="433.9"
   y2="267.8"
   id="line60" />
<line
   class="server-woman-3 fill-none stroke-dark"
   stroke-width="2"
   stroke-linecap="round"
   stroke-linejoin="round"
   x1="261.6"
   y1="369.4"
   x2="261.6"
   y2="267.8"
   id="line62" />
<line
   class="server-woman-3 fill-none stroke-dark"
   stroke-width="2"
   stroke-linecap="round"
   stroke-linejoin="round"
   x1="419.3"
   y1="389.8"
   x2="419.3"
   y2="267.8"
   id="line64" />
<line
   class="server-woman-3 fill-none stroke-dark"
   stroke-width="2"
   stroke-linecap="round"
   stroke-linejoin="round"
   x1="246.2"
   y1="389.8"
   x2="246.2"
   y2="267.8"
   id="line66" />
<line
   class="server-woman-3 fill-none stroke-dark"
   stroke-width="2"
   stroke-linecap="round"
   stroke-linejoin="round"
   x1="349.1"
   y1="388.3"
   x2="380.9"
   y2="334.8"
   id="line68" />
<rect
   x="313.8"
   y="261.7"
   width="34.4"
   height="1.2"
   id="rect70" />
<polyline
   class="server-woman-3 fill-none stroke-dark"
   stroke-width="1.25"
   stroke-linecap="round"
   stroke-linejoin="round"
   points="299.7,236.1 275.6,236.1 275.6,181.6 350.8,181.6 350.8,236.1 317.7,236.1 "
   id="polyline72" />
<polygon
   class="server-woman-3 fill-none stroke-dark"
   stroke-width="1.25"
   stroke-linecap="round"
   stroke-linejoin="round"
   points="302.6,225.9 292.2,262.9 310.4,262.9 320.5,225.9 "
   id="polygon74" />










<rect
   x="32.907368"
   y="142.81638"
   class="server-woman-4 fill-primary"
   width="107.3"
   height="20.700001"
   id="rect96" />
<circle
   class="server-woman-5 fill-white"
   cx="132.40736"
   cy="150.61638"
   r="3.5999999"
   id="circle98" />
<line
   class="server-woman-6 fill-none stroke-white"
   stroke-width="2"
   stroke-linecap="round"
   stroke-linejoin="round"
   x1="69.907364"
   y1="150.61638"
   x2="125.80737"
   y2="150.61638"
   id="line100" />
<rect
   x="32.907368"
   y="177.81638"
   class="server-woman-4 fill-primary"
   width="107.3"
   height="20.700001"
   id="rect102" />
<circle
   class="server-woman-5 fill-white"
   cx="132.40736"
   cy="185.51639"
   r="3.5999999"
   id="circle104" />
<line
   class="server-woman-6 fill-none stroke-white"
   stroke-width="2"
   stroke-linecap="round"
   stroke-linejoin="round"
   x1="69.907364"
   y1="185.51639"
   x2="125.80737"
   y2="185.51639"
   id="line106" />
<rect
   x="32.907368"
   y="212.71638"
   class="server-woman-4 fill-primary"
   width="107.3"
   height="20.700001"
   id="rect108" />
<circle
   class="server-woman-5 fill-white"
   cx="132.40736"
   cy="220.51639"
   r="3.5999999"
   id="circle110" />
<line
   class="server-woman-6 fill-none stroke-white"
   stroke-width="2"
   stroke-linecap="round"
   stroke-linejoin="round"
   x1="69.907364"
   y1="220.51639"
   x2="125.80737"
   y2="220.51639"
   id="line112" />
<rect
   x="32.907368"
   y="247.71638"
   class="server-woman-4 fill-primary"
   width="107.3"
   height="20.700001"
   id="rect114" />
<circle
   class="server-woman-5 fill-white"
   cx="132.40736"
   cy="255.41638"
   r="3.5999999"
   id="circle116" />
<line
   class="server-woman-6 fill-none stroke-white"
   stroke-width="2"
   stroke-linecap="round"
   stroke-linejoin="round"
   x1="69.907364"
   y1="255.41638"
   x2="125.80737"
   y2="255.41638"
   id="line118" />
<rect
   x="32.907368"
   y="282.61639"
   class="server-woman-4 fill-primary"
   width="107.3"
   height="20.700001"
   id="rect120" />
<circle
   class="server-woman-5 fill-white"
   cx="132.40736"
   cy="290.41638"
   r="3.5999999"
   id="circle122" />
<line
   class="server-woman-6 fill-none stroke-white"
   stroke-width="2"
   stroke-linecap="round"
   stroke-linejoin="round"
   x1="69.907364"
   y1="290.41638"
   x2="125.80737"
   y2="290.41638"
   id="line124" />








<path
   class="server-woman-3 fill-none stroke-dark"
   stroke-width="1.25"
   stroke-linecap="round"
   stroke-linejoin="round"
   d="M386.7,173.4c0.3,0.8,0.7,1.5,1.3,2.1"
   id="path142" />
<polyline
   class="server-woman-3 fill-none stroke-dark"
   stroke-width="1.25"
   stroke-linecap="round"
   stroke-linejoin="round"
   points="339.1,385.3 341.3,397.2 315.8,402.1 333.2,390.9 332.4,386.2 "
   id="polyline144" />
<path
   d="M426.2,310.5c0-2.1,0.4-4.5-0.9-5.1c-31.2-12.9-76.8-14.5-83.8-14.5s-27.6,0.7-27.6,6.6c0,21.3,11.8,86.7,14.2,89.1  c1.1,1.2,11.1,0.4,12.3-0.9c-0.1-5.4,3-59.5,0.2-66.1c26.2,9.6,55.9,14.1,63.8,14.1C427.1,333.8,426.2,313,426.2,310.5z"
   id="path146" />
<path
   class="server-woman-5 fill-white"
   opacity=".05"
   d="M426.2,310.5c0-2.1,0.4-4.5-0.9-5.1c-31.2-12.9-76.8-14.5-83.8-14.5s-27.6,0.7-27.6,6.6  c0,21.3,11.8,86.7,14.2,89.1c1.1,1.2,11.1,0.4,12.3-0.9c-0.1-5.4,3-59.5,0.2-66.1c26.2,9.6,55.9,14.1,63.8,14.1  C427.1,333.8,426.2,313,426.2,310.5z"
   id="path148" />

<circle
   class="server-woman-5 fill-white"
   cx="400.1"
   cy="190.5"
   r="0.9"
   id="circle152" />
<circle
   class="server-woman-5 fill-white"
   cx="388"
   cy="189.6"
   r="0.9"
   id="circle154" />
<path
   class="server-woman-3 fill-none stroke-dark"
   stroke-width="1.1185"
   stroke-linecap="round"
   stroke-linejoin="round"
   d="M390.5,200.9c0,0,2.5,4.1,6.6,1"
   id="path156" />
<style
   type="text/css"
   id="style198">
	.icon-3-0{fill:none;stroke:#BDC5D1;}
	.icon-3-1{fill:#BDC5D1;}
	.icon-3-2{fill:#377DFF;}
	.icon-3-3{fill:none;stroke:#377DFF;}
	.icon-3-4{fill:none;stroke:#FFFFFF;}
</style><g
   id="g242"
   transform="matrix(0.6973718,0,0,0.6271005,300.71117,26.924562)"><path
     class="icon-3-0 fill-none stroke-gray-400"
     stroke-width="3"
     stroke-linecap="round"
     stroke-linejoin="round"
     stroke-miterlimit="10"
     d="m 117.9,60 c 0,-0.5 0,-1 0,-1.5 l -7.1,-2.9 6.5,-4.4 c -0.9,-5.7 -2.5,-11 -4.9,-16 l -8.1,0.3 4.3,-6.9 c -3,-4.7 -6.7,-8.8 -10.9,-12.4 l -7.6,3.7 1.2,-8.4 C 86.7,8.6 81.7,6.3 76.4,4.7 L 70.9,11.3 68.5,3 C 65.8,2.6 63.1,2.4 60.3,2.4 57.5,2.4 54.8,2.6 52.1,3 L 49.7,11.3 44.2,4.7 C 38.9,6.3 33.8,8.6 29.3,11.5 l 1.2,8.4 -7.6,-3.7 C 18.7,19.8 15,24 12,28.6 l 4.3,6.9 -8.1,-0.3 c -2.4,5 -4.1,10.4 -4.9,16 l 6.5,4.4 -7.1,2.9 c 0,0.5 0,1 0,1.5 0,5.3 0.7,10.5 2.1,15.4 l 7.2,1.3 -5,5.2 c 2,5.4 5,10.4 8.7,14.8 l 6.8,-1.7 -2.3,6.5 c 4.2,4 8.9,7.5 14.2,10.1 l 5.3,-4.1 0.5,6.6 c 5.4,2 11.1,3.2 17.1,3.6 l 3.1,-5.8 3.1,5.8 c 6,-0.3 11.7,-1.6 17.1,-3.6 l 0.5,-6.6 5.3,4.1 c 5.2,-2.6 10,-6.1 14.2,-10.1 L 98,95 l 6.8,1.7 c 3.6,-4.4 6.6,-9.4 8.8,-14.8 l -5,-5.2 7.2,-1.3 c 1.4,-4.9 2.1,-10 2.1,-15.4 z"
     id="path200" /><path
     class="icon-3-1 fill-gray-400"
     opacity="0.5"
     d="m 91.3,56.1 -7,-0.5 1.7,-6.8 c -1.7,-1.6 -3.6,-3.1 -5.8,-4.2 l -6,3.7 -2.7,-6.5 c -1.2,-0.2 -2.4,-0.2 -3.6,-0.2 -1.2,0 -2.4,0.1 -3.6,0.2 l -2.7,6.5 -6,-3.7 c -2.1,1.1 -4.1,2.6 -5.8,4.2 l 1.7,6.8 -7,0.5 c -1,2.1 -1.8,4.4 -2.2,6.8 l 5.4,4.6 -5.4,4.5 c 0.4,2.4 1.2,4.7 2.2,6.8 l 7,0.5 -1.7,6.8 c 1.7,1.6 3.6,3.1 5.8,4.2 l 6,-3.7 2.7,6.5 c 1.2,0.2 2.4,0.2 3.6,0.2 1.2,0 2.4,-0.1 3.6,-0.2 l 2.7,-6.5 6,3.7 c 2.1,-1.1 4.1,-2.6 5.8,-4.2 l -1.7,-6.8 7,-0.5 c 1,-2.1 1.8,-4.4 2.2,-6.8 l -5.4,-4.6 5.4,-4.6 c -0.4,-2.3 -1.1,-4.6 -2.2,-6.7 z"
     id="path202" /><path
     class="icon-3-2 fill-primary"
     d="M 83.4,48.4 76.4,47.9 78,41 c -1.7,-1.6 -3.6,-3.1 -5.8,-4.2 l -6,3.7 -2.6,-6.5 c -1.2,-0.2 -2.4,-0.2 -3.6,-0.2 -1.2,0 -2.4,0.1 -3.6,0.2 l -2.7,6.5 -6,-3.7 c -2.1,1.1 -4.1,2.6 -5.8,4.2 l 1.7,6.8 -7,0.5 c -1,2.1 -1.8,4.4 -2.2,6.8 l 5.4,4.6 -5.4,4.6 c 0.4,2.4 1.2,4.7 2.2,6.8 l 7,0.5 -1.6,6.9 c 1.7,1.6 3.6,3.1 5.8,4.2 l 6,-3.7 2.7,6.5 c 1.2,0.2 2.4,0.2 3.6,0.2 1.2,0 2.4,-0.1 3.6,-0.2 l 2.7,-6.5 6,3.7 c 2.1,-1.1 4.1,-2.6 5.8,-4.2 l -1.7,-6.8 7,-0.5 c 1,-2.1 1.8,-4.4 2.2,-6.8 l -5.4,-4.6 5.4,-4.6 c -0.5,-2.4 -1.3,-4.7 -2.3,-6.8 z"
     id="path204" /><path
     class="icon-3-3 fill-none stroke-primary"
     stroke-width="3"
     stroke-linecap="round"
     stroke-linejoin="round"
     stroke-miterlimit="10"
     d="m 99.9,59.6 c 0,0.1 0,0.3 0,0.4"
     id="path206" /><path
     class="icon-3-3 fill-none stroke-primary"
     stroke-width="3"
     stroke-linecap="round"
     stroke-linejoin="round"
     stroke-miterlimit="10"
     d="m 99.1,52 c 0.2,0.9 0.4,1.9 0.5,2.9"
     id="path208" /><path
     class="icon-3-3 fill-none stroke-primary"
     stroke-width="3"
     stroke-linecap="round"
     stroke-linejoin="round"
     stroke-miterlimit="10"
     d="m 60.2,20.4 c 16.6,0 30.9,10.2 36.7,24.8"
     id="path210" /><path
     class="icon-3-3 fill-none stroke-primary"
     stroke-width="3"
     stroke-linecap="round"
     stroke-linejoin="round"
     stroke-miterlimit="10"
     d="M 21.8,69.8 C 21,66.7 20.6,63.4 20.6,60"
     id="path212" /><path
     class="icon-3-3 fill-none stroke-primary"
     stroke-width="3"
     stroke-linecap="round"
     stroke-linejoin="round"
     stroke-miterlimit="10"
     d="M 60.2,99.6 C 44.7,99.6 31.3,90.7 24.8,77.7"
     id="path214" /><circle
     class="icon-3-4 fill-none stroke-white"
     stroke-width="3"
     stroke-linecap="round"
     stroke-linejoin="round"
     stroke-miterlimit="10"
     cx="60"
     cy="59.700001"
     r="11.3"
     id="circle216" /><polyline
     class="icon-3-3 fill-none stroke-primary"
     stroke-width="3"
     stroke-linecap="round"
     stroke-linejoin="round"
     stroke-miterlimit="10"
     points="67,25.9 60.2,20.4 67.9,16.2 "
     id="polyline218" /><polyline
     class="icon-3-3 fill-none stroke-primary"
     stroke-width="3"
     stroke-linecap="round"
     stroke-linejoin="round"
     stroke-miterlimit="10"
     points="53,94.8 60.2,99.7 53,104.5 "
     id="polyline220" /></g><style
   type="text/css"
   id="style336">
	.icon-25-0{fill:none;stroke:#BDC5D1;}
	.icon-25-1{fill:#BDC5D1;}
	.icon-25-2{fill:#FFFFFF;}
	.icon-25-3{fill:none;stroke:#377DFF;}
	.icon-25-4{fill:#377DFF;stroke:#377DFF;}
</style><g
   id="g470"
   transform="matrix(0.77943001,0,0,0.77085358,100.57671,20.958447)"><line
     class="icon-25-0 fill-none stroke-gray-400"
     stroke-width="3"
     stroke-linecap="round"
     stroke-linejoin="round"
     stroke-miterlimit="10"
     x1="43"
     y1="22"
     x2="43"
     y2="22"
     id="line338" /><circle
     transform="matrix(0.01280544,-0.9999,0.9999,0.01280544,-4.6111,134.7994)"
     class="icon-25-1 fill-gray-400"
     opacity="0.5"
     stroke-width="3"
     stroke-linecap="round"
     stroke-linejoin="round"
     stroke-miterlimit="10"
     cx="66"
     cy="69.699997"
     id="ellipse340"
     r="36.700001" /><circle
     transform="matrix(0.01280544,-0.9999,0.9999,0.01280544,-1.5924,120.0452)"
     class="icon-25-2 fill-white"
     cx="60"
     cy="60.799999"
     id="ellipse342"
     r="36.700001" /><path
     class="icon-25-0 fill-none stroke-gray-400"
     stroke-width="3"
     stroke-linecap="round"
     stroke-linejoin="round"
     stroke-miterlimit="10"
     d="M 27.3,43.6"
     id="path344" /><path
     class="icon-25-0 fill-none stroke-gray-400"
     stroke-width="3"
     stroke-linecap="round"
     stroke-linejoin="round"
     stroke-miterlimit="10"
     d="M 119.2,60.9 C 119.2,72.4 92.7,81.7 60,81.7 27.3,81.7 0.8,72.4 0.8,60.9 0.8,54.6 8.7,49 21.2,45.2"
     id="path346" /><path
     class="icon-25-0 fill-none stroke-gray-400"
     stroke-width="3"
     stroke-linecap="round"
     stroke-linejoin="round"
     stroke-miterlimit="10"
     d="m 112.7,51.4 c 0.9,0.6 1.7,1.3 2.5,1.9"
     id="path348" /><path
     class="icon-25-0 fill-none stroke-gray-400"
     stroke-width="3"
     stroke-linecap="round"
     stroke-linejoin="round"
     stroke-miterlimit="10"
     d="M 92.7,43.6"
     id="path350" /><path
     class="icon-25-0 fill-none stroke-gray-400"
     stroke-width="3"
     stroke-linecap="round"
     stroke-linejoin="round"
     stroke-miterlimit="10"
     d="M 23.9,86.3"
     id="path352" /><path
     class="icon-25-3 fill-none stroke-primary"
     stroke-width="3"
     stroke-linecap="round"
     stroke-linejoin="round"
     stroke-miterlimit="10"
     d="m 57.1,86.3 c -0.9,-0.8 -1.9,-1.6 -2.8,-2.4 -3,-2.6 -6,-5.4 -9,-8.3 C 22.2,52.5 10,27.1 18.1,19"
     id="path354" /><path
     class="icon-25-0 fill-none stroke-gray-400"
     stroke-width="3"
     stroke-linecap="round"
     stroke-linejoin="round"
     stroke-miterlimit="10"
     d="M 95.2,71.5"
     id="path356" /><path
     class="icon-25-0 fill-none stroke-gray-400"
     stroke-width="3"
     stroke-linecap="round"
     stroke-linejoin="round"
     stroke-miterlimit="10"
     d="M 74.7,46.2"
     id="path358" /><path
     class="icon-25-0 fill-none stroke-gray-400"
     stroke-width="3"
     stroke-linecap="round"
     stroke-linejoin="round"
     stroke-miterlimit="10"
     d="M 45.3,46.2"
     id="path360" /><path
     class="icon-25-0 fill-none stroke-gray-400"
     stroke-width="3"
     stroke-linecap="round"
     stroke-linejoin="round"
     stroke-miterlimit="10"
     d="M 60,97.7"
     id="path362" /><path
     class="icon-25-0 fill-none stroke-gray-400"
     stroke-width="3"
     stroke-linecap="round"
     stroke-linejoin="round"
     stroke-miterlimit="10"
     d="M 74.7,72.6"
     id="path364" /><line
     class="icon-25-0 fill-none stroke-gray-400"
     stroke-width="3"
     stroke-linecap="round"
     stroke-linejoin="round"
     stroke-miterlimit="10"
     x1="91.599998"
     y1="42.799999"
     x2="28.4"
     y2="42.799999"
     id="line366" /><line
     class="icon-25-0 fill-none stroke-gray-400"
     stroke-width="3"
     stroke-linecap="round"
     stroke-linejoin="round"
     stroke-miterlimit="10"
     x1="60"
     y1="24.1"
     x2="60"
     y2="72.699997"
     id="line368" /><path
     class="icon-25-0 fill-none stroke-gray-400"
     stroke-width="3"
     stroke-linecap="round"
     stroke-linejoin="round"
     stroke-miterlimit="10"
     d="m 44.8,68.7 c -0.2,-2.5 -0.3,-5.1 -0.3,-7.8 0,-20.3 7,-36.8 15.5,-36.8 8.5,0 15.5,16.5 15.5,36.8 0,2.7 -0.1,5.3 -0.3,7.8"
     id="path370" /><path
     class="icon-25-0 fill-none stroke-gray-400"
     stroke-width="3"
     stroke-linecap="round"
     stroke-linejoin="round"
     stroke-miterlimit="10"
     d="M 45.3,72.6"
     id="path372" /><path
     class="icon-25-0 fill-none stroke-gray-400"
     stroke-width="3"
     stroke-linecap="round"
     stroke-linejoin="round"
     stroke-miterlimit="10"
     d="M 81.6,85.9"
     id="path374" /><path
     class="icon-25-0 fill-none stroke-gray-400"
     stroke-width="3"
     stroke-linecap="round"
     stroke-linejoin="round"
     stroke-miterlimit="10"
     d="M 91.1,43.2"
     id="path376" /><path
     class="icon-25-0 fill-none stroke-gray-400"
     stroke-width="3"
     stroke-linecap="round"
     stroke-linejoin="round"
     stroke-miterlimit="10"
     d="M 60,40.1"
     id="path378" /><path
     class="icon-25-3 fill-none stroke-primary"
     stroke-width="3"
     stroke-linecap="round"
     stroke-linejoin="round"
     stroke-miterlimit="10"
     d="M 70.6,25.7 C 80.7,19.4 89.7,16.1 95.9,16.6"
     id="path380" /><circle
     transform="matrix(0.01280544,-0.9999,0.9999,0.01280544,-1.5924,120.0452)"
     class="icon-25-3 fill-none stroke-primary"
     stroke-width="3"
     stroke-linecap="round"
     stroke-linejoin="round"
     stroke-miterlimit="10"
     cx="60"
     cy="60.799999"
     id="ellipse382"
     r="36.700001" /><path
     class="icon-25-3 fill-none stroke-primary"
     stroke-width="3"
     stroke-linecap="round"
     stroke-linejoin="round"
     stroke-miterlimit="10"
     d="m 102.5,86.2 c 2.6,7.5 2.6,13.4 -0.6,16.6 -6.1,6.1 -21.8,0.8 -39,-11.9"
     id="path384" /><path
     class="icon-25-3 fill-none stroke-primary"
     stroke-width="3"
     stroke-linecap="round"
     stroke-linejoin="round"
     stroke-miterlimit="10"
     d="M 104.4,25.9 C 104.6,40 93.2,54.5 84.7,64.6 72.9,78.8 58.5,92 42,100.3 c -5.6,2.8 -12.3,5.7 -18.7,4.9"
     id="path386" /><path
     class="icon-25-0 fill-none stroke-gray-400"
     stroke-width="3"
     stroke-linecap="round"
     stroke-linejoin="round"
     stroke-miterlimit="10"
     d="M 101.9,19"
     id="path388" /><path
     class="icon-25-0 fill-none stroke-gray-400"
     stroke-width="3"
     stroke-linecap="round"
     stroke-linejoin="round"
     stroke-miterlimit="10"
     d="M 51.6,73.3"
     id="path390" /><path
     class="icon-25-0 fill-none stroke-gray-400"
     stroke-width="3"
     stroke-linecap="round"
     stroke-linejoin="round"
     stroke-miterlimit="10"
     d="M 106.8,52.5"
     id="path392" /><path
     class="icon-25-0 fill-none stroke-gray-400"
     stroke-width="3"
     stroke-linecap="round"
     stroke-linejoin="round"
     stroke-miterlimit="10"
     d="M 84.3,35.2"
     id="path394" /><line
     class="icon-25-0 fill-none stroke-gray-400"
     stroke-width="3"
     stroke-linecap="round"
     stroke-linejoin="round"
     stroke-miterlimit="10"
     x1="81.300003"
     y1="60.5"
     x2="38.700001"
     y2="60.5"
     id="line396" /><circle
     class="icon-25-1 fill-gray-400"
     opacity="0.5"
     stroke-width="3"
     stroke-linecap="round"
     stroke-linejoin="round"
     stroke-miterlimit="10"
     cx="21.700001"
     cy="100.1"
     r="7.5"
     id="circle398" /><circle
     class="icon-25-4 fill-primary stroke-primary"
     stroke-width="3"
     stroke-linecap="round"
     stroke-linejoin="round"
     stroke-miterlimit="10"
     cx="17.6"
     cy="102.8"
     r="7.5"
     id="circle400" /><circle
     class="icon-25-2 fill-white"
     cx="17.6"
     cy="102.8"
     r="3.7"
     id="circle402" /><path
     class="icon-25-1 fill-gray-400"
     opacity="0.5"
     stroke-width="3"
     stroke-linecap="round"
     stroke-linejoin="round"
     stroke-miterlimit="10"
     d="m 115.2,21.3 c 0,4.7 -3.8,8.6 -8.6,8.6 -4.8,0 -8.6,-3.8 -8.6,-8.6 0,-4.8 3.8,-8.6 8.6,-8.6 4.8,0 8.6,3.9 8.6,8.6 z"
     id="path404" /><path
     class="icon-25-4 fill-primary stroke-primary"
     stroke-width="2.5"
     stroke-linecap="round"
     stroke-linejoin="round"
     stroke-miterlimit="10"
     d="m 109.8,19.3 c 0,4.7 -3.8,8.6 -8.6,8.6 -4.8,0 -8.6,-3.8 -8.6,-8.6 0,-4.8 3.8,-8.6 8.6,-8.6 4.8,0 8.6,3.9 8.6,8.6 z"
     id="path406" /><path
     class="icon-25-2 fill-white"
     d="m 105.6,19.3 c 0,2.4 -2,4.4 -4.4,4.4 -2.4,0 -4.4,-2 -4.4,-4.4 0,-2.4 2,-4.4 4.4,-4.4 2.4,0 4.4,2 4.4,4.4 z"
     id="path408" /><line
     class="icon-25-0 fill-none stroke-gray-400"
     stroke-width="3"
     stroke-linecap="round"
     stroke-linejoin="round"
     stroke-miterlimit="10"
     x1="108"
     y1="48.700001"
     x2="108"
     y2="48.700001"
     id="line410" /><line
     class="icon-25-3 fill-none stroke-primary"
     stroke-width="3"
     stroke-linecap="round"
     stroke-linejoin="round"
     stroke-miterlimit="10"
     x1="16.1"
     y1="90.800003"
     x2="16.1"
     y2="90.800003"
     id="line412" /><path
     class="icon-25-0 fill-none stroke-gray-400"
     stroke-width="3"
     stroke-linecap="round"
     stroke-linejoin="round"
     stroke-miterlimit="10"
     d="m 18.5,84.4 c 0.6,-1.4 2.4,-6.2 3.1,-7.6"
     id="path414" /><line
     class="icon-25-0 fill-none stroke-gray-400"
     stroke-width="3"
     stroke-linecap="round"
     stroke-linejoin="round"
     stroke-miterlimit="10"
     x1="36.5"
     y1="19"
     x2="36.5"
     y2="19"
     id="line416" /><path
     class="icon-25-0 fill-none stroke-gray-400"
     stroke-width="3"
     stroke-linecap="round"
     stroke-linejoin="round"
     stroke-miterlimit="10"
     d="m 23.5,16.6 c 1,-0.1 3.6,-0.5 4.8,-0.4"
     id="path418" /></g></svg>
