<?xml version="1.0" encoding="UTF-8" standalone="no"?>
<svg
   xmlns:dc="http://purl.org/dc/elements/1.1/"
   xmlns:cc="http://creativecommons.org/ns#"
   xmlns:rdf="http://www.w3.org/1999/02/22-rdf-syntax-ns#"
   xmlns:svg="http://www.w3.org/2000/svg"
   xmlns="http://www.w3.org/2000/svg"
   xmlns:xlink="http://www.w3.org/1999/xlink"
   xmlns:sodipodi="http://sodipodi.sourceforge.net/DTD/sodipodi-0.dtd"
   xmlns:inkscape="http://www.inkscape.org/namespaces/inkscape"
   version="1.1"
   id="Layer_1"
   x="0px"
   y="0px"
   viewBox="0 0 128 126"
   style="enable-background:new 0 0 128 126;"
   xml:space="preserve"
   sodipodi:docname="orchestration.svg"
   inkscape:version="1.0.2-2 (e86c870879, 2021-01-15)"><metadata
   id="metadata98"><rdf:RDF><cc:Work
       rdf:about=""><dc:format>image/svg+xml</dc:format><dc:type
         rdf:resource="http://purl.org/dc/dcmitype/StillImage" /></cc:Work></rdf:RDF></metadata><defs
   id="defs96"><clipPath
     id="A"><path
       d="M76 2v46H54v23H35.58l-.206 2c-1.15 12.53 1.036 24.088 6.063 33.97l1.688 3.03c1 1.817 2.2 3.523 3.438 5.188s1.686 2.583 2.47 3.688C62.32 133.8 82.13 141 105 141c50.648 0 93.633-22.438 112.656-72.844C231.153 69.54 244.1 66.08 250 54.563c-9.4-5.424-21.478-3.685-28.437-.187L240 2l-72 46h-23V2z"
       id="path729" /></clipPath><clipPath
     id="A-0"><path
       d="M525.438 782.113h33.964V681.938l97.8 100.175h44.836l-107.312-110.37 114.097-127.355H665.36l-105.957 118.86v-118.86H525.44z"
       id="path915" /></clipPath><linearGradient
     id="B-5"
     spreadMethod="pad"
     gradientUnits="userSpaceOnUse"
     y2="790.912"
     x2="536.264"
     y1="550.499"
     x1="682.17"
     gradientTransform="matrix(1.3131522,0.57249255,-0.54806538,1.2658409,-896.93849,-1046.8154)"><stop
       offset="0"
       stop-color="#4f66b9"
       id="stop918" /><stop
       offset="1"
       stop-color="#484fab"
       id="stop920" /></linearGradient><clipPath
     id="C-9"><path
       d="M631.824 876.457l167.266-96.57a9.24 9.24 0 0 0 4.609-7.989V578.754c0-3.293 1.77-6.34 4.62-7.988l149.266-86.184c6.152-3.555 13.84.9 13.84 7.988v376.172c0 3.293-1.758 6.336-4.6 7.988l-325.76 188.08c-6.153 3.55-13.852-.9-13.852-8V884.445c0-3.3 1.762-6.336 4.62-7.988z"
       id="path923" /></clipPath><linearGradient
     id="D-9"
     spreadMethod="pad"
     gradientUnits="userSpaceOnUse"
     y2="1086.135"
     x2="677.091"
     y1="516.667"
     x1="1007.83"
     gradientTransform="matrix(1.3131522,0.57249255,-0.54806538,1.2658409,-896.93849,-1046.8154)"><stop
       offset="0"
       stop-color="#4f66b9"
       id="stop926" /><stop
       offset="1"
       stop-color="#484fab"
       id="stop928" /></linearGradient><clipPath
     id="E"><path
       d="M775.75 530.344l-167.266-96.57c-2.85-1.652-6.375-1.652-9.226 0L408.652 543.82a9.26 9.26 0 0 0-4.62 8v220.097a9.25 9.25 0 0 0 4.621 7.989L575.92 876.47a9.22 9.22 0 0 1 4.617 7.984v172.367c0 7.1-7.695 11.54-13.847 8L240.926 876.73c-2.852-1.652-4.6-4.695-4.6-7.988v-413.77c0-3.3 1.758-6.336 4.6-8L599.258 240.1c2.85-1.653 6.375-1.653 9.226 0l325.762 188.074c6.152 3.554 6.152 12.433 0 15.984L784.98 530.344c-2.863 1.652-6.378 1.652-9.23 0z"
       id="path931" /></clipPath><linearGradient
     id="F"
     spreadMethod="pad"
     gradientUnits="userSpaceOnUse"
     y2="920.709"
     x2="318.474"
     y1="284.03"
     x1="679.093"
     gradientTransform="matrix(1.3131522,0.57249255,-0.54806538,1.2658409,-896.93849,-1046.8154)"><stop
       offset="0"
       stop-color="#4c68bb"
       id="stop934" /><stop
       offset="1"
       stop-color="#5180c9"
       id="stop936" /></linearGradient></defs><sodipodi:namedview
   pagecolor="#ffffff"
   bordercolor="#666666"
   borderopacity="1"
   objecttolerance="10"
   gridtolerance="10"
   guidetolerance="10"
   inkscape:pageopacity="0"
   inkscape:pageshadow="2"
   inkscape:window-width="2400"
   inkscape:window-height="1284"
   id="namedview94"
   showgrid="false"
   inkscape:zoom="6.6825397"
   inkscape:cx="95.012844"
   inkscape:cy="62.064641"
   inkscape:window-x="-9"
   inkscape:window-y="-9"
   inkscape:window-maximized="1"
   inkscape:current-layer="Layer_1" />
<style
   type="text/css"
   id="style2">
	.st0{opacity:0.3;fill:#BDC5D1;}
	.st1{fill:#FFFFFF;}
	.st2{fill:#2684FF;}
	.st3{fill:url(#SVGID_1_);}
	.st4{fill:url(#SVGID_2_);}
	.st5{fill:#95BF47;}
	.st6{fill:#5E8E3E;}
	.st7{fill:url(#b_1_);}
	.st8{fill:url(#e_1_);}
	.st9{fill:url(#h_1_);}
	.st10{fill-rule:evenodd;clip-rule:evenodd;fill:#EA6C00;}
	.st11{fill-rule:evenodd;clip-rule:evenodd;fill:#FDAD00;}
	.st12{fill-rule:evenodd;clip-rule:evenodd;fill:#FDD231;}
	.st13{fill-rule:evenodd;clip-rule:evenodd;fill:#FEEEB7;}
</style>
<path
   class="st0"
   d="m 65.776733,67.588372 -42.1,-17.5 c -3,-1.2 -4.4,-4.7 -3.2,-7.7 l 17.5,-42.00000017 c 1.2,-3.00000003 4.7,-4.40000003 7.7,-3.20000003 l 42.1,17.4000002 c 3,1.2 4.4,4.7 3.2,7.7 l -17.5,42.1 c -1.2,3 -4.7,4.4 -7.7,3.2 z"
   id="path4" />
<path
   class="st1"
   d="m 63.665105,63.611628 -42.1,-17.5 c -3,-1.2 -4.4,-4.7 -3.2,-7.7 l 17.5,-41.9999998 c 1.2,-3 4.7,-4.4 7.7,-3.2 l 42.1,17.3999998 c 3,1.2 4.4,4.7 3.2,7.7 l -17.5,42.1 c -1.2,3 -4.7,4.4 -7.7,3.2 z"
   id="path6" />

<linearGradient
   id="SVGID_1_"
   gradientUnits="userSpaceOnUse"
   x1="-1162.4835"
   y1="423.0362"
   x2="-1162.4888"
   y2="423.0308"
   gradientTransform="matrix(1079.1891 447.1534 444.5365 -1072.8733 1066557.125 973696.75)">
	<stop
   offset="0.18"
   style="stop-color:#0052CC"
   id="stop10" />
	<stop
   offset="1"
   style="stop-color:#2684FF"
   id="stop12" />
</linearGradient>

<linearGradient
   id="SVGID_2_"
   gradientUnits="userSpaceOnUse"
   x1="-1162.0336"
   y1="423.4908"
   x2="-1162.0396"
   y2="423.485"
   gradientTransform="matrix(1079.1971 447.1567 444.5364 -1072.8732 1065869.875 973991.3125)">
	<stop
   offset="0.18"
   style="stop-color:#0052CC"
   id="stop17" />
	<stop
   offset="1"
   style="stop-color:#2684FF"
   id="stop19" />
</linearGradient>

<path
   class="st0"
   d="M48.2,134.7L6.1,117.3c-3-1.2-4.4-4.7-3.2-7.7l17.4-42.1c1.2-3,4.7-4.4,7.7-3.2l42.2,17.5  c3,1.2,4.4,4.7,3.2,7.7L56,131.6C54.6,134.5,51.2,136,48.2,134.7z"
   id="path24" />
<path
   class="st1"
   d="M46,129.5L3.9,112.1c-3-1.2-4.4-4.7-3.2-7.7l17.4-42.1c1.2-3,4.7-4.4,7.7-3.2L68,76.6c3,1.2,4.4,4.7,3.2,7.7  l-17.4,42.1C52.4,129.3,49,130.8,46,129.5z"
   id="path26" />



<path
   class="st0"
   d="M124.4,137.8l-42.1-17.4c-3-1.2-4.4-4.7-3.2-7.7l17.4-42.1c1.2-3,4.7-4.4,7.7-3.2l42.1,17.4  c3,1.2,4.4,4.7,3.2,7.7l-17.4,42.1C130.8,137.6,127.4,139,124.4,137.8z"
   id="path34" />
<path
   class="st1"
   d="M122.5,134l-42.1-17.4c-3-1.2-4.4-4.7-3.2-7.7l17.4-42.1c1.2-3,4.7-4.4,7.7-3.2L144.4,81c3,1.2,4.4,4.7,3.2,7.7  l-17.4,42.1C128.9,133.8,125.5,135.2,122.5,134z"
   id="path36" />

<path
   class="st0"
   d="m 141.73022,72.834884 -42.1,-17.4 c -3,-1.2 -4.4,-4.7 -3.2,-7.7 l 17.4,-42.0999995 c 1.2,-3 4.7,-4.4 7.7,-3.2 l 42.1,17.3999995 c 3,1.2 4.4,4.7 3.2,7.7 l -17.4,42.1 c -1.3,3 -4.7,4.4 -7.7,3.2 z"
   id="path81" />
<path
   class="st1"
   d="m 139.95348,69.704653 -42.100003,-17.4 c -3,-1.2 -4.4,-4.7 -3.2,-7.7 L 112.05348,2.5046534 c 1.2,-2.99999998 4.7,-4.4 7.7,-3.19999998 l 42.1,17.39999958 c 3,1.2 4.4,4.7 3.2,7.7 l -17.4,42.1 c -1.3,3 -4.7,4.4 -7.7,3.2 z"
   id="path83" />








<style
   id="style282"><![CDATA[.C{fill-rule:evenodd}]]></style><g
   transform="matrix(0.55972255,0.21398902,-0.2133789,0.56743891,35.24821,39.309266)"
   class="C"
   id="g296"><g
     fill="#5c4ee5"
     id="g294"><path
       d="M 53.64,-0.483"
       id="path290" /><path
       d="M 17.94,-21.093"
       id="path292" /></g></g><g
   id="g340"
   transform="matrix(0.69058013,0.34047818,-0.33009216,0.72196519,120.39125,205.11252)"
   style="stroke-width:1.27936"><path
     d="m -65.08,-127.692 8.28,20.438 -12.508,-9.853 z m 14.7,25.147 -12.728,-30.655 c -0.364,-0.884 -1.1,-1.352 -1.973,-1.352 -0.873,0 -1.664,0.468 -2.028,1.352 L -81.1,-99.576 h 4.783 l 5.534,-13.863 16.515,13.343 c 0.664,0.537 1.144,0.78 1.767,0.78 1.248,0 2.338,-0.936 2.338,-2.286 0,-0.22 -0.078,-0.57 -0.218,-0.944 z"
     fill="#ffffff"
     id="path328"
     style="stroke-width:1.63676" /></g><g
   id="g398"
   transform="matrix(0.68155993,0.29505702,-0.28885107,0.6980026,26.056585,65.144794)"
   style="stroke-width:1.33516"><g
     fill="#b7ca9d"
     id="g370"
     style="stroke-width:1.78266" /></g><g
   id="g441"
   transform="rotate(22.000897,38.986644,298.37386)" /><g
   transform="matrix(1.1099119,0.5273843,-0.50929532,1.1493334,23.392929,13.735161)"
   id="g769"
   style="stroke-width:1.09348"><path
     d="m 30.305,-3.553 h 4.222 v 4.316 h 2.135 a 9.26,9.26 0 0 0 2.934,-0.492 c 0.46,-0.156 0.974,-0.372 1.426,-0.644 -0.596,-0.778 -0.9,-1.76 -1,-2.73 -0.122,-1.317 0.144,-3.032 1.036,-4.063 l 0.444,-0.513 0.53,0.425 c 1.332,1.07 2.452,2.565 2.65,4.27 1.603,-0.472 3.486,-0.36 4.9,0.456 l 0.58,0.335 -0.305,0.596 C 48.67,0.733 46.17,1.456 43.727,1.328 40.071,10.433 32.112,14.744 22.462,14.744 17.476,14.744 12.902,12.88 10.298,8.457 10.145,8.182 10.015,7.895 9.876,7.613 8.996,5.666 8.703,3.533 8.901,1.413 l 0.06,-0.638 h 3.6 V -3.55 h 4.222 v -4.222 h 8.445 v -4.222 h 5.067 v 8.445"
     fill="#394d54"
     id="path734"
     style="stroke-width:1.16405" /><g
     transform="matrix(0.184659,0,0,0.184659,3.070472,-11.997864)"
     clip-path="url(#A)"
     id="g761"
     style="stroke-width:1.09348"><g
       id="B"
       style="stroke-width:1.09348"><g
         id="C"
         transform="translate(0,-22.866)"
         style="stroke-width:1.09348"><path
           d="m 123.86,3.8 h 19.818 V 23.617 H 123.86 Z"
           fill="#00acd3"
           id="path736"
           style="stroke-width:1.16405" /><path
           d="m 123.86,26.676 h 19.818 V 46.494 H 123.86 Z"
           fill="#20c2ef"
           id="path738"
           style="stroke-width:1.16405" /><path
           id="D"
           d="M 126.292,21.977 V 5.46 m 2.972,16.516 V 5.46 m 3.002,16.516 V 5.46 m 3.003,16.516 V 5.46 m 3.003,16.516 V 5.46 m 2.97,16.516 V 5.46"
           stroke="#394d54"
           stroke-width="1.70583" /><use
           xlink:href="#D"
           y="22.865999"
           id="use741"
           x="0"
           width="100%"
           height="100%"
           style="stroke-width:1.09348" /></g><use
         xlink:href="#C"
         transform="matrix(1,0,0,-1,22.866,4.572651)"
         id="use744"
         x="0"
         y="0"
         width="100%"
         height="100%"
         style="stroke-width:1.09348" /></g><use
       xlink:href="#B"
       x="-91.463997"
       y="45.731998"
       id="use747"
       width="100%"
       height="100%"
       style="stroke-width:1.09348" /><use
       xlink:href="#B"
       x="-45.731998"
       y="45.731998"
       id="use749"
       width="100%"
       height="100%"
       style="stroke-width:1.09348" /><use
       xlink:href="#B"
       y="45.731998"
       id="use751"
       x="0"
       width="100%"
       height="100%"
       style="stroke-width:1.09348" /><path
       d="m 221.57,54.38 c 1.533,-11.915 -7.384,-21.275 -12.914,-25.718 -6.373,7.368 -7.363,26.678 2.635,34.807 -5.58,4.956 -17.337,9.448 -29.376,9.448 H 34 C 32.83,85.484 34,146 34,146 h 217 l -0.987,-91.424 c -9.4,-5.424 -21.484,-3.694 -28.443,-0.197"
       fill="#17b5eb"
       id="path753"
       style="stroke-width:1.16405" /><path
       d="m 34,89 v 57 H 251 V 89"
       fill-opacity="0.17"
       id="path755"
       style="stroke-width:1.16405" /><path
       d="M 111.237,140.9 C 97.697,134.475 90.265,125.74 86.13,116.206 L 45,118 l 21,28 45.237,-5.1"
       fill="#d4edf1"
       id="path757"
       style="stroke-width:1.16405" /><path
       d="m 222.5,53.938 v 0.03 c -20.86,26.9 -50.783,50.38 -82.906,62.72 -28.655,11.008 -53.638,11.06 -70.875,2.22 -1.856,-1.048 -3.676,-2.212 -5.5,-3.312 C 50.582,106.764 43.465,92.156 44.063,72.909 H 34 V 146 H 251 V 50 h -25 z"
       fill-opacity="0.085"
       id="path759"
       style="stroke-width:1.16405" /></g><path
     d="m 11.496,9.613 c 2.616,0.143 5.407,0.17 7.842,-0.594"
     fill="none"
     stroke="#394d54"
     stroke-width="0.686705"
     stroke-linecap="round"
     id="path763" /><path
     d="m 21.937,7.753 a 1.01,1.01 0 0 1 -1.009,1.009 1.01,1.01 0 0 1 -1.01,-1.009 1.01,1.01 0 0 1 1.01,-1.01 1.01,1.01 0 0 1 1.009,1.01 z"
     fill="#d4edf1"
     id="path765"
     style="stroke-width:1.16405" /><path
     d="m 21.2,7.08 c -0.088,0.05 -0.148,0.146 -0.148,0.256 0,0.163 0.132,0.295 0.295,0.295 0.112,0 0.2,-0.062 0.26,-0.154 a 0.73,0.73 0 0 1 0.055,0.277 c 0,0.4 -0.324,0.723 -0.723,0.723 -0.399,0 -0.723,-0.324 -0.723,-0.723 0,-0.399 0.324,-0.723 0.723,-0.723 A 0.72,0.72 0 0 1 21.201,7.08 Z M 3.07,4.65 h 46.964 c -1.023,-0.26 -3.235,-0.6 -2.87,-1.95 -1.86,2.152 -6.344,1.5 -7.475,0.448 -1.26,1.828 -8.597,1.133 -9.108,-0.3 -1.58,1.854 -6.475,1.854 -8.055,0 -0.512,1.424 -7.848,2.12 -9.1,0.3 C 12.284,4.2 7.8,4.853 5.94,2.7 6.305,4.04 4.092,4.4 3.07,4.65"
     fill="#394d54"
     id="path767"
     style="stroke-width:1.16405" /></g><g
   id="g825"
   transform="matrix(1.3826176,0.63727292,-0.66981989,1.3154353,26.532478,66.580537)"
   style="stroke-width:1.33464"><path
     d="M 15.9,0.476 A 2.14,2.14 0 0 0 15.077,0.694 L 3.932,6.01 C 3.35,6.287 2.927,6.814 2.782,7.442 L 0.054,19.373 c -0.13,0.56 -0.025,1.147 0.3,1.627 q 0.057,0.087 0.12,0.168 l 7.7,9.574 c 0.407,0.5 1.018,0.787 1.662,0.784 h 12.35 c 0.646,0.001 1.258,-0.3 1.664,-0.793 l 7.696,-9.576 c 0.404,-0.5 0.555,-1.16 0.4,-1.786 L 29.2,7.43 C 29.055,6.802 28.63,6.275 28.05,5.998 L 16.923,0.695 A 2.14,2.14 0 0 0 15.89,0.476 Z"
     fill="#326ce5"
     id="path811"
     style="stroke-width:1.59376" /><path
     d="m 16.002,4.542 c -0.384,0.027 -0.675,0.356 -0.655,0.74 V 5.47 c 0.018,0.213 0.05,0.424 0.092,0.633 a 6.22,6.22 0 0 1 0.066,1.21 C 15.467,7.446 15.391,7.566 15.287,7.658 L 15.272,7.94 c -0.405,0.034 -0.807,0.096 -1.203,0.186 -1.666,0.376 -3.183,1.24 -4.354,2.485 l -0.24,-0.17 C 9.343,10.481 9.201,10.466 9.08,10.401 A 6.22,6.22 0 0 1 8.183,9.591 5.55,5.55 0 0 0 7.746,9.126 L 7.598,9.008 C 7.466,8.902 7.304,8.841 7.135,8.833 A 0.64,0.64 0 0 0 6.604,9.069 C 6.378,9.386 6.452,9.825 6.768,10.052 l 0.138,0.11 a 5.55,5.55 0 0 0 0.552,0.323 c 0.354,0.197 0.688,0.428 0.998,0.7 a 0.74,0.74 0 0 1 0.133,0.384 l 0.218,0.2 c -1.177,1.766 -1.66,3.905 -1.358,6.006 l -0.28,0.08 c -0.073,0.116 -0.17,0.215 -0.286,0.288 a 6.22,6.22 0 0 1 -1.194,0.197 5.57,5.57 0 0 0 -0.64,0.05 l -0.177,0.04 h -0.02 a 0.67,0.67 0 0 0 -0.387,1.132 0.67,0.67 0 0 0 0.684,0.165 h 0.013 l 0.18,-0.02 c 0.203,-0.06 0.403,-0.134 0.598,-0.218 0.375,-0.15 0.764,-0.265 1.162,-0.34 0.138,0.008 0.27,0.055 0.382,0.135 l 0.3,-0.05 c 0.65,2.017 2.016,3.726 3.84,4.803 l -0.122,0.255 c 0.056,0.117 0.077,0.247 0.06,0.376 -0.165,0.382 -0.367,0.748 -0.603,1.092 a 5.58,5.58 0 0 0 -0.358,0.533 l -0.085,0.18 a 0.67,0.67 0 0 0 0.65,1.001 0.67,0.67 0 0 0 0.553,-0.432 l 0.083,-0.17 c 0.076,-0.2 0.14,-0.404 0.192,-0.61 0.177,-0.437 0.273,-0.906 0.515,-1.196 a 0.54,0.54 0 0 1 0.286,-0.14 l 0.15,-0.273 a 8.62,8.62 0 0 0 6.146,0.015 l 0.133,0.255 c 0.136,0.02 0.258,0.095 0.34,0.205 0.188,0.358 0.34,0.733 0.456,1.12 a 5.57,5.57 0 0 0 0.194,0.611 l 0.083,0.17 a 0.67,0.67 0 0 0 1.187,0.131 0.67,0.67 0 0 0 0.016,-0.701 l -0.087,-0.18 a 5.55,5.55 0 0 0 -0.358,-0.531 c -0.23,-0.332 -0.428,-0.686 -0.6,-1.057 a 0.52,0.52 0 0 1 0.068,-0.4 2.29,2.29 0 0 1 -0.111,-0.269 c 1.82,-1.085 3.18,-2.8 3.823,-4.82 l 0.284,0.05 c 0.102,-0.093 0.236,-0.142 0.373,-0.138 0.397,0.076 0.786,0.2 1.162,0.34 0.195,0.09 0.395,0.166 0.598,0.23 0.048,0.013 0.118,0.024 0.172,0.037 h 0.013 A 0.67,0.67 0 0 0 27.678,18.87 0.67,0.67 0 0 0 27.134,18.424 L 26.94,18.378 a 5.57,5.57 0 0 0 -0.64,-0.05 c -0.404,-0.026 -0.804,-0.092 -1.194,-0.197 -0.12,-0.067 -0.22,-0.167 -0.288,-0.288 l -0.27,-0.08 A 8.65,8.65 0 0 0 23.162,11.77 l 0.236,-0.218 c -0.01,-0.137 0.035,-0.273 0.124,-0.378 0.307,-0.264 0.64,-0.497 0.99,-0.696 a 5.57,5.57 0 0 0 0.552,-0.323 L 25.21,10.037 A 0.67,0.67 0 0 0 25.077,8.835 0.67,0.67 0 0 0 24.381,8.996 l -0.148,0.118 a 5.57,5.57 0 0 0 -0.437,0.465 c -0.264,0.302 -0.556,0.577 -0.873,0.823 a 0.74,0.74 0 0 1 -0.404,0.044 l -0.253,0.18 c -1.46,-1.53 -3.427,-2.48 -5.535,-2.67 0,-0.1 -0.013,-0.25 -0.015,-0.297 C 16.603,7.581 16.524,7.462 16.498,7.327 A 6.23,6.23 0 0 1 16.574,6.12 C 16.617,5.91 16.647,5.7 16.666,5.487 v -0.2 c 0.02,-0.384 -0.27,-0.713 -0.655,-0.74 z m -0.834,5.166 -0.2,3.493 h -0.015 c -0.01,0.216 -0.137,0.4 -0.332,0.504 -0.195,0.104 -0.426,0.073 -0.6,-0.054 l -2.865,-2.03 a 6.86,6.86 0 0 1 3.303,-1.799 c 0.234,-0.05 0.47,-0.088 0.707,-0.114 z m 1.668,0 c 1.505,0.187 2.906,0.863 3.99,1.924 l -2.838,2.017 c -0.175,0.14 -0.415,0.168 -0.618,0.072 -0.203,-0.096 -0.333,-0.3 -0.336,-0.524 z m -6.72,3.227 2.62,2.338 v 0.015 c 0.163,0.142 0.234,0.363 0.186,0.574 -0.048,0.211 -0.21,0.378 -0.417,0.435 v 0.01 l -3.362,0.967 a 6.86,6.86 0 0 1 0.974,-4.34 z m 11.753,0 c 0.796,1.295 1.148,2.814 1.002,4.327 l -3.367,-0.97 v -0.013 c -0.21,-0.057 -0.37,-0.224 -0.417,-0.435 -0.047,-0.211 0.023,-0.43 0.186,-0.574 l 2.6,-2.327 z m -6.404,2.52 h 1.072 l 0.655,0.832 -0.238,1.04 -0.963,0.463 -0.965,-0.463 -0.227,-1.04 z m 3.434,2.838 c 0.045,-0.005 0.1,-0.005 0.135,0 l 3.467,0.585 c -0.5,1.44 -1.487,2.67 -2.775,3.493 l -1.34,-3.244 a 0.59,0.59 0 0 1 0.509,-0.819 z m -5.823,0.015 c 0.196,0.003 0.377,0.104 0.484,0.268 0.107,0.164 0.124,0.37 0.047,0.55 v 0.013 l -1.332,3.218 C 11,21.54 10.032,20.325 9.517,18.9 l 3.437,-0.583 c 0.038,-0.004 0.077,-0.004 0.116,0 z m 2.904,1.4 a 0.59,0.59 0 0 1 0.537,0.308 h 0.013 l 1.694,3.057 -0.677,0.2 C 16.301,23.558 15,23.491 13.789,23.079 l 1.7,-3.057 c 0.103,-0.18 0.293,-0.29 0.5,-0.295 z"
     fill="#ffffff"
     stroke="#ffffff"
     stroke-width="0.0734052"
     id="path813" /></g><g
   id="g873"
   transform="matrix(0.7358268,0.20089399,-0.18651227,0.68315001,95.903681,77.561419)"
   style="stroke-width:1.45135"><g
     fill="#db212f"
     id="g851"
     style="stroke-width:2.24923"><path
       d="M 17.424,27.158 7.8,30.664 c 0.123,1.545 0.4,3.07 0.764,4.566 l 9.15,-3.333 c -0.297,-1.547 -0.403,-3.142 -0.28,-4.74 M 60,16.504 c -0.672,-1.386 -1.45,-2.726 -2.35,-3.988 l -9.632,3.506 c 1.12,1.147 2.06,2.435 2.83,3.813 z"
       id="path847"
       style="stroke-width:1.45135" /><path
       d="m 38.802,13.776 c 2.004,0.935 3.74,2.21 5.204,3.707 l 9.633,-3.506 A 27.38,27.38 0 0 0 42.883,5.027 C 29.113,-1.393 12.685,4.585 6.263,18.353 A 27.38,27.38 0 0 0 3.775,32.124 l 9.634,-3.505 c 0.16,-2.087 0.67,-4.18 1.603,-6.184 4.173,-8.947 14.844,-12.83 23.79,-8.658"
       id="path849"
       style="stroke-width:1.45135" /></g><path
     d="M 9.153,35.01 0,38.342 c 0.84,3.337 2.3,6.508 4.304,9.33 l 9.612,-3.5 A 17.99,17.99 0 0 1 9.153,35.008"
     fill="#ea2227"
     id="path853"
     style="stroke-width:2.24923" /><path
     d="m 49.074,31.38 a 17.64,17.64 0 0 1 -1.616,6.186 c -4.173,8.947 -14.843,12.83 -23.79,8.657 a 17.71,17.71 0 0 1 -5.215,-3.7 l -9.612,3.5 c 2.662,3.744 6.293,6.874 10.748,8.953 13.77,6.42 30.196,0.44 36.618,-13.328 a 27.28,27.28 0 0 0 2.479,-13.765 l -9.61,3.498 z"
     fill="#db212f"
     id="path855"
     style="stroke-width:2.24923" /><path
     d="m 51.445,19.618 -9.153,3.332 c 1.7,3.046 2.503,6.553 2.24,10.08 l 9.612,-3.497 c -0.275,-3.45 -1.195,-6.817 -2.7,-9.915"
     fill="#ea2227"
     id="path857"
     style="stroke-width:2.24923" /></g><g
   transform="matrix(0.0495634,0.02241567,0.02145924,-0.05141585,85.442272,58.962817)"
   id="g947"
   style="stroke-width:1.4057"><path
     d="m 525.438,782.113 h 33.964 V 681.938 l 97.8,100.175 h 44.836 L 594.726,671.743 708.823,544.388 H 665.36 L 559.403,663.248 V 544.388 H 525.44 v 237.726"
     fill="url(#B)"
     clip-path="url(#A-0)"
     id="path941"
     style="fill:url(#B-5);stroke-width:1.4057" /><path
     d="m 631.824,876.457 167.266,-96.57 a 9.24,9.24 0 0 0 4.609,-7.989 V 578.754 c 0,-3.293 1.77,-6.34 4.62,-7.988 l 149.266,-86.184 c 6.152,-3.555 13.84,0.9 13.84,7.988 v 376.172 c 0,3.293 -1.758,6.336 -4.6,7.988 l -325.76,188.08 c -6.153,3.55 -13.852,-0.9 -13.852,-8 V 884.445 c 0,-3.3 1.762,-6.336 4.62,-7.988"
     fill="url(#D)"
     clip-path="url(#C-9)"
     id="path943"
     style="fill:url(#D-9);stroke-width:1.4057" /><path
     d="m 775.75,530.344 -167.266,-96.57 c -2.85,-1.652 -6.375,-1.652 -9.226,0 L 408.652,543.82 a 9.26,9.26 0 0 0 -4.62,8 v 220.097 a 9.25,9.25 0 0 0 4.621,7.989 L 575.92,876.47 a 9.22,9.22 0 0 1 4.617,7.984 v 172.367 c 0,7.1 -7.695,11.54 -13.847,8 L 240.926,876.73 c -2.852,-1.652 -4.6,-4.695 -4.6,-7.988 v -413.77 c 0,-3.3 1.758,-6.336 4.6,-8 L 599.258,240.1 c 2.85,-1.653 6.375,-1.653 9.226,0 l 325.762,188.074 c 6.152,3.554 6.152,12.433 0,15.984 L 784.98,530.344 c -2.863,1.652 -6.378,1.652 -9.23,0"
     fill="url(#F)"
     clip-path="url(#E)"
     id="path945"
     style="fill:url(#F);stroke-width:1.4057" /></g></svg>
