<?xml version="1.0" encoding="UTF-8" standalone="no"?>
<svg
   xmlns:dc="http://purl.org/dc/elements/1.1/"
   xmlns:cc="http://creativecommons.org/ns#"
   xmlns:rdf="http://www.w3.org/1999/02/22-rdf-syntax-ns#"
   xmlns:svg="http://www.w3.org/2000/svg"
   xmlns="http://www.w3.org/2000/svg"
   xmlns:xlink="http://www.w3.org/1999/xlink"
   xmlns:sodipodi="http://sodipodi.sourceforge.net/DTD/sodipodi-0.dtd"
   xmlns:inkscape="http://www.inkscape.org/namespaces/inkscape"
   preserveAspectRatio="none"
   version="1.1"
   id="Layer_1"
   x="0px"
   y="0px"
   width="400"
   height="400"
   viewBox="0 0 400 400"
   style="enable-background:new 0 0 400 400;"
   xml:space="preserve"
   sodipodi:docname="rabbitmq.svg"
   inkscape:version="1.0.2-2 (e86c870879, 2021-01-15)"><metadata
   id="metadata35"><rdf:RDF><cc:Work
       rdf:about=""><dc:format>image/svg+xml</dc:format><dc:type
         rdf:resource="http://purl.org/dc/dcmitype/StillImage" /><dc:title /></cc:Work></rdf:RDF></metadata><defs
   id="defs33"><filter
     id="shadowFilter-p.1"
     filterUnits="userSpaceOnUse"><feGaussianBlur
       in="SourceAlpha"
       stdDeviation="2.0"
       result="blur"
       id="feGaussianBlur1073" /><feComponentTransfer
       in="blur"
       color-interpolation-filters="sRGB"
       id="feComponentTransfer1083"><feFuncR
         type="linear"
         slope="0"
         intercept="1.0"
         id="feFuncR1075" /><feFuncG
         type="linear"
         slope="0"
         intercept="1.0"
         id="feFuncG1077" /><feFuncB
         type="linear"
         slope="0"
         intercept="1.0"
         id="feFuncB1079" /><feFuncA
         type="linear"
         slope="0.5"
         intercept="0"
         id="feFuncA1081" /></feComponentTransfer></filter><clipPath
     id="SVGID_2_-7"><use
       xlink:href="#SVGID_1_"
       style="overflow:visible;"
       id="use7-2" /></clipPath></defs><sodipodi:namedview
   pagecolor="#ffffff"
   bordercolor="#666666"
   borderopacity="1"
   objecttolerance="10"
   gridtolerance="10"
   guidetolerance="10"
   inkscape:pageopacity="0"
   inkscape:pageshadow="2"
   inkscape:window-width="2400"
   inkscape:window-height="1284"
   id="namedview31"
   showgrid="false"
   inkscape:zoom="1.4884598"
   inkscape:cx="92.019898"
   inkscape:cy="194.25627"
   inkscape:window-x="-9"
   inkscape:window-y="-9"
   inkscape:window-maximized="1"
   inkscape:current-layer="g28"
   inkscape:document-rotation="0"><inkscape:grid
     type="xygrid"
     id="grid1365" /></sodipodi:namedview>
<style
   type="text/css"
   id="style2">
	.st0{clip-path:url(#SVGID_2_);fill:#4571F8;}
	.st1{clip-path:url(#SVGID_2_);fill:#FFFFFF;}
	.st2{clip-path:url(#SVGID_2_);fill:#8582FB;}
	.st3{clip-path:url(#SVGID_2_);fill:#46B5F9;}
	.st4{clip-path:url(#SVGID_2_);}
	.st5{fill:none;stroke:#4571F8;stroke-width:5;stroke-linecap:round;stroke-miterlimit:10;}
</style>
<g
   id="g28">
	<defs
   id="defs5">
		<rect
   id="SVGID_1_"
   width="400"
   height="400" />
	</defs>
	<clipPath
   id="SVGID_2_">
		<use
   xlink:href="#SVGID_1_"
   style="overflow:visible;"
   id="use7" />
	</clipPath>
	<rect
   class="st0"
   width="400"
   height="400"
   clip-path="url(#SVGID_2_)"
   id="rect10"
   x="0"
   y="0"
   style="fill:#21325b;fill-opacity:1" />
	<path
   class="st1"
   d="M468.3,58.1l18.3,154c1.3,10.9-6.5,20.9-17.5,22.2l-154,18.3c-10.9,1.3-20.9-6.5-22.2-17.5l-18.3-154   c-1.3-10.9,6.5-20.9,17.5-22.2l154-18.3C457,39.4,467,47.2,468.3,58.1z"
   clip-path="url(#SVGID_2_)"
   id="path12"
   style="fill:#ffffff;fill-opacity:1;stroke:none" />
	<path
   class="st2"
   d="M456.5,32.5l-14.6,154.4c-1,11-10.8,19-21.7,18l-154.4-14.6c-11-1-19-10.8-18-21.7l14.6-154.4   c1-11,10.8-19,21.7-18l154.4,14.6C449.5,11.8,457.5,21.5,456.5,32.5z"
   clip-path="url(#SVGID_2_)"
   id="path14"
   style="fill:#5a325b;fill-opacity:1" />
	<path
   class="st3"
   d="M456.4,29.9l-71.5,137.6c-5.1,9.8-17.1,13.6-26.9,8.5l-137.6-71.5c-9.8-5.1-13.6-17.1-8.5-26.9L283.4-60   c5.1-9.8,17.1-13.6,26.9-8.5L447.9,3C457.7,8.1,461.5,20.1,456.4,29.9z"
   clip-path="url(#SVGID_2_)"
   id="path16"
   style="fill:#215f5b;fill-opacity:1" />
	
	<g
   class="st4"
   clip-path="url(#SVGID_2_)"
   id="g26">
		
		
		
	</g>
<g
   style="fill:none;stroke:none;stroke-linecap:square;stroke-miterlimit:10"
   id="g1133"
   transform="matrix(0.4992151,0,0,0.57072087,11.613879,215.17195)"><g
     clip-path="url(#p.0)"
     id="g1093"><path
       fill="#000000"
       fill-opacity="0"
       d="M 0,0 H 394 V 300 H 0 Z"
       fill-rule="evenodd"
       id="path1065" /><path
       fill="#fa4f13"
       d="M -0.143937,0 H 338.72221 V 300 H -0.143937 Z"
       fill-rule="evenodd"
       id="path1067" /><g
       filter="url(#shadowFilter-p.1)"
       id="g1071"><use
         xlink:href="#p.1"
         transform="translate(0,2)"
         id="use1069"
         x="0"
         y="0"
         width="100%"
         height="100%" /></g><defs
       id="defs1086"><filter
         id="filter1126"
         filterUnits="userSpaceOnUse"><feGaussianBlur
           in="SourceAlpha"
           stdDeviation="2.0"
           result="blur"
           id="feGaussianBlur1114" /><feComponentTransfer
           in="blur"
           color-interpolation-filters="sRGB"
           id="feComponentTransfer1124"><feFuncR
             type="linear"
             slope="0"
             intercept="1.0"
             id="feFuncR1116" /><feFuncG
             type="linear"
             slope="0"
             intercept="1.0"
             id="feFuncG1118" /><feFuncB
             type="linear"
             slope="0"
             intercept="1.0"
             id="feFuncB1120" /><feFuncA
             type="linear"
             slope="0.5"
             intercept="0"
             id="feFuncA1122" /></feComponentTransfer></filter></defs><g
       id="p.1"><path
         fill="#000000"
         fill-opacity="0"
         d="M 19.220472,-134.58008 H 374.77955 V -32.84779 H 19.220472 Z"
         fill-rule="evenodd"
         id="path1088" /><path
         fill="#ffffff"
         d="M 331.26422,300.61993 V 88.91681 L 246.04547,300.61993 H 217.9361 L 132.71735,88.91681 V 300.61993 H 68.342345 V -1.75507 H 158.54547 L 231.9986,180.94805 305.4361,-1.75507 h 90.65625 v 302.375 z"
         fill-rule="nonzero"
         id="path1090" /></g></g></g><g
   id="g1259"
   transform="matrix(0.75835122,0,0,0.71383051,294.15285,298.79848)"><circle
     class="st0"
     cx="23.5"
     cy="23.5"
     r="21.5"
     id="circle1245"
     clip-path="url(#SVGID_2_)"
     transform="translate(6.3916954,74.529625)" /><circle
     class="st1"
     cx="82.199997"
     cy="108"
     r="10.5"
     id="circle1247"
     clip-path="url(#SVGID_2_)"
     transform="translate(-6.6443694,0.94116938)"
     inkscape:transform-center-x="-10.077531"
     inkscape:transform-center-y="13.436708" /><circle
     class="st1"
     cx="82.199997"
     cy="108"
     r="10.5"
     id="circle1247-8"
     clip-path="url(#SVGID_2_)"
     style="fill:none;stroke:#8c98a4;stroke-width:3;stroke-miterlimit:10"
     transform="translate(31.011479,0.94080961)" /></g><path
   d="m 353.93507,62.458127 h -20.113 a 1.82,1.82 0 0 1 -1.82,-1.82 v -20.963 c 0,-1.56 -1.253,-2.812 -2.812,-2.812 h -7.185 c -1.56,0 -2.812,1.253 -2.812,2.812 v 20.822 c 0,1.087 -0.874,1.962 -1.962,1.962 l -6.594,0.024 c -1.087,0 -1.985,-0.874 -1.962,-1.962 l 0.047,-20.845 c 0,-1.56 -1.253,-2.812 -2.812,-2.812 h -7.185 c -1.56,0 -2.812,1.253 -2.812,2.812 v 58.682 c 0,1.37 1.11,2.505003 2.505,2.505003 h 55.516 c 1.37,0 2.505,-1.110003 2.505,-2.505003 v -33.396 a 2.49,2.49 0 0 0 -2.505,-2.505 z m -9.43,22.027 a 3.27,3.27 0 0 1 -3.262,3.261 h -5.672 a 3.27,3.27 0 0 1 -3.261,-3.261 v -5.672 a 3.27,3.27 0 0 1 3.261,-3.261 h 5.672 a 3.27,3.27 0 0 1 3.262,3.261 z"
   fill="#ff6600"
   id="path1443" /></g>
<style
   type="text/css"
   id="style1243">
	.st0{fill:none;stroke:#8c98a4;stroke-width:4;stroke-miterlimit:10;}
	.st1{fill:none;stroke:#8c98a4;stroke-width:3;stroke-miterlimit:10;}
</style></svg>
